<mxfile host="app.diagrams.net" modified="2023-05-15T07:59:33.943Z" agent="Mozilla/5.0 (Windows NT 10.0; Win64; x64) AppleWebKit/537.36 (KHTML, like Gecko) Chrome/113.0.0.0 Safari/537.36" etag="obXIoHVKi3Tlu81oizeO" version="21.3.0" type="github">
  <diagram name="第 1 页" id="4GRe8nmb9LO3hDfh0xay">
    <mxGraphModel dx="2514" dy="2105" grid="1" gridSize="10" guides="1" tooltips="1" connect="1" arrows="1" fold="1" page="1" pageScale="1" pageWidth="827" pageHeight="1169" math="0" shadow="0">
      <root>
        <mxCell id="0" />
        <mxCell id="1" parent="0" />
        <mxCell id="EEVbNRZ3YIjHYYHEZtKa-38" value="" style="rounded=0;whiteSpace=wrap;html=1;" vertex="1" parent="1">
          <mxGeometry x="535" y="310" width="400" height="310" as="geometry" />
        </mxCell>
        <mxCell id="EEVbNRZ3YIjHYYHEZtKa-5" value="" style="rounded=0;whiteSpace=wrap;html=1;" vertex="1" parent="1">
          <mxGeometry x="535" y="200" width="400" height="102.5" as="geometry" />
        </mxCell>
        <mxCell id="EEVbNRZ3YIjHYYHEZtKa-7" value="" style="rounded=0;whiteSpace=wrap;html=1;fillColor=#f5f5f5;fontColor=#333333;strokeColor=#666666;" vertex="1" parent="1">
          <mxGeometry x="550" y="360" width="370" height="248" as="geometry" />
        </mxCell>
        <mxCell id="EEVbNRZ3YIjHYYHEZtKa-9" value="介于" style="rounded=0;whiteSpace=wrap;html=1;fillColor=#f5f5f5;fontColor=#333333;strokeColor=#666666;" vertex="1" parent="1">
          <mxGeometry x="640" y="408" width="60" height="30" as="geometry" />
        </mxCell>
        <mxCell id="EEVbNRZ3YIjHYYHEZtKa-13" value="流程B" style="rounded=0;whiteSpace=wrap;html=1;fillColor=#f5f5f5;fontColor=#333333;strokeColor=#666666;" vertex="1" parent="1">
          <mxGeometry x="640" y="368" width="60" height="30" as="geometry" />
        </mxCell>
        <mxCell id="EEVbNRZ3YIjHYYHEZtKa-14" value="字段1" style="rounded=0;whiteSpace=wrap;html=1;fillColor=#f5f5f5;fontColor=#333333;strokeColor=#666666;" vertex="1" parent="1">
          <mxGeometry x="710" y="368" width="60" height="30" as="geometry" />
        </mxCell>
        <mxCell id="EEVbNRZ3YIjHYYHEZtKa-15" value="大于" style="rounded=0;whiteSpace=wrap;html=1;fillColor=#f5f5f5;fontColor=#333333;strokeColor=#666666;" vertex="1" parent="1">
          <mxGeometry x="780" y="368" width="60" height="30" as="geometry" />
        </mxCell>
        <mxCell id="EEVbNRZ3YIjHYYHEZtKa-17" value="安卓" style="rounded=0;whiteSpace=wrap;html=1;fillColor=#f5f5f5;fontColor=#333333;strokeColor=#666666;" vertex="1" parent="1">
          <mxGeometry x="640" y="448" width="60" height="30" as="geometry" />
        </mxCell>
        <mxCell id="EEVbNRZ3YIjHYYHEZtKa-20" value="5月1号 ~5月2号&amp;nbsp;" style="rounded=0;whiteSpace=wrap;html=1;fillColor=#f5f5f5;fontColor=#333333;strokeColor=#666666;" vertex="1" parent="1">
          <mxGeometry x="710" y="408" width="130" height="30" as="geometry" />
        </mxCell>
        <mxCell id="EEVbNRZ3YIjHYYHEZtKa-22" value="否" style="rounded=0;whiteSpace=wrap;html=1;fillColor=#f5f5f5;fontColor=#333333;strokeColor=#666666;" vertex="1" parent="1">
          <mxGeometry x="640" y="488" width="60" height="30" as="geometry" />
        </mxCell>
        <mxCell id="EEVbNRZ3YIjHYYHEZtKa-24" value="值" style="rounded=0;whiteSpace=wrap;html=1;fillColor=#f5f5f5;fontColor=#333333;strokeColor=#666666;" vertex="1" parent="1">
          <mxGeometry x="850" y="368" width="60" height="30" as="geometry" />
        </mxCell>
        <mxCell id="EEVbNRZ3YIjHYYHEZtKa-26" value="逻辑" style="rounded=0;whiteSpace=wrap;html=1;fillColor=#f5f5f5;fontColor=#333333;strokeColor=#666666;" vertex="1" parent="1">
          <mxGeometry x="640" y="528" width="60" height="30" as="geometry" />
        </mxCell>
        <mxCell id="EEVbNRZ3YIjHYYHEZtKa-27" value="值" style="rounded=0;whiteSpace=wrap;html=1;fillColor=#f5f5f5;fontColor=#333333;strokeColor=#666666;" vertex="1" parent="1">
          <mxGeometry x="710" y="528" width="60" height="30" as="geometry" />
        </mxCell>
        <mxCell id="EEVbNRZ3YIjHYYHEZtKa-28" value="" style="group" vertex="1" connectable="0" parent="1">
          <mxGeometry x="560" y="368" width="80" height="190" as="geometry" />
        </mxCell>
        <mxCell id="EEVbNRZ3YIjHYYHEZtKa-8" value="时间判断" style="rounded=0;whiteSpace=wrap;html=1;fillColor=#d5e8d4;strokeColor=#82b366;" vertex="1" parent="EEVbNRZ3YIjHYYHEZtKa-28">
          <mxGeometry y="40" width="70" height="30" as="geometry" />
        </mxCell>
        <mxCell id="EEVbNRZ3YIjHYYHEZtKa-12" value="流程判断" style="rounded=0;whiteSpace=wrap;html=1;fillColor=#d5e8d4;strokeColor=#82b366;" vertex="1" parent="EEVbNRZ3YIjHYYHEZtKa-28">
          <mxGeometry width="70" height="30" as="geometry" />
        </mxCell>
        <mxCell id="EEVbNRZ3YIjHYYHEZtKa-16" value="平台判断" style="rounded=0;whiteSpace=wrap;html=1;fillColor=#d5e8d4;strokeColor=#82b366;" vertex="1" parent="EEVbNRZ3YIjHYYHEZtKa-28">
          <mxGeometry y="80" width="70" height="30" as="geometry" />
        </mxCell>
        <mxCell id="EEVbNRZ3YIjHYYHEZtKa-21" value="端内外判断" style="rounded=0;whiteSpace=wrap;html=1;fillColor=#d5e8d4;strokeColor=#82b366;" vertex="1" parent="EEVbNRZ3YIjHYYHEZtKa-28">
          <mxGeometry y="120" width="70" height="30" as="geometry" />
        </mxCell>
        <mxCell id="EEVbNRZ3YIjHYYHEZtKa-25" value="规则N" style="rounded=0;whiteSpace=wrap;html=1;fillColor=#d5e8d4;strokeColor=#82b366;" vertex="1" parent="EEVbNRZ3YIjHYYHEZtKa-28">
          <mxGeometry y="160" width="70" height="30" as="geometry" />
        </mxCell>
        <mxCell id="EEVbNRZ3YIjHYYHEZtKa-30" value="x" style="text;html=1;align=center;verticalAlign=middle;resizable=0;points=[];autosize=1;strokeColor=none;fillColor=none;" vertex="1" parent="EEVbNRZ3YIjHYYHEZtKa-28">
          <mxGeometry x="50" y="-10" width="30" height="30" as="geometry" />
        </mxCell>
        <mxCell id="EEVbNRZ3YIjHYYHEZtKa-31" value="x" style="text;html=1;align=center;verticalAlign=middle;resizable=0;points=[];autosize=1;strokeColor=none;fillColor=none;" vertex="1" parent="1">
          <mxGeometry x="610" y="398" width="30" height="30" as="geometry" />
        </mxCell>
        <mxCell id="EEVbNRZ3YIjHYYHEZtKa-32" value="x" style="text;html=1;align=center;verticalAlign=middle;resizable=0;points=[];autosize=1;strokeColor=none;fillColor=none;" vertex="1" parent="1">
          <mxGeometry x="610" y="439" width="30" height="30" as="geometry" />
        </mxCell>
        <mxCell id="EEVbNRZ3YIjHYYHEZtKa-33" value="x" style="text;html=1;align=center;verticalAlign=middle;resizable=0;points=[];autosize=1;strokeColor=none;fillColor=none;" vertex="1" parent="1">
          <mxGeometry x="610" y="479" width="30" height="30" as="geometry" />
        </mxCell>
        <mxCell id="EEVbNRZ3YIjHYYHEZtKa-34" value="x" style="text;html=1;align=center;verticalAlign=middle;resizable=0;points=[];autosize=1;strokeColor=none;fillColor=none;" vertex="1" parent="1">
          <mxGeometry x="609" y="520" width="30" height="30" as="geometry" />
        </mxCell>
        <mxCell id="EEVbNRZ3YIjHYYHEZtKa-35" value="添加规则" style="rounded=0;whiteSpace=wrap;html=1;fillColor=#dae8fc;strokeColor=#6c8ebf;" vertex="1" parent="1">
          <mxGeometry x="560" y="568" width="70" height="30" as="geometry" />
        </mxCell>
        <mxCell id="EEVbNRZ3YIjHYYHEZtKa-39" value="状态1" style="rounded=0;whiteSpace=wrap;html=1;strokeWidth=1;fillColor=#f5f5f5;fontColor=#333333;strokeColor=#666666;" vertex="1" parent="1">
          <mxGeometry x="550" y="320" width="90" height="40" as="geometry" />
        </mxCell>
        <mxCell id="EEVbNRZ3YIjHYYHEZtKa-40" value="状态1" style="rounded=0;whiteSpace=wrap;html=1;dashed=1;" vertex="1" parent="1">
          <mxGeometry x="650" y="320" width="90" height="30" as="geometry" />
        </mxCell>
        <mxCell id="EEVbNRZ3YIjHYYHEZtKa-41" value="状态1" style="rounded=0;whiteSpace=wrap;html=1;dashed=1;" vertex="1" parent="1">
          <mxGeometry x="750" y="320" width="90" height="30" as="geometry" />
        </mxCell>
        <mxCell id="EEVbNRZ3YIjHYYHEZtKa-42" value="+" style="rounded=0;whiteSpace=wrap;html=1;" vertex="1" parent="1">
          <mxGeometry x="890" y="320" width="30" height="30" as="geometry" />
        </mxCell>
        <mxCell id="EEVbNRZ3YIjHYYHEZtKa-44" value="" style="rounded=0;whiteSpace=wrap;html=1;strokeWidth=2;strokeColor=none;fillColor=#f5f5f5;fontColor=#333333;direction=south;" vertex="1" parent="1">
          <mxGeometry x="551" y="348" width="88" height="18" as="geometry" />
        </mxCell>
        <mxCell id="EEVbNRZ3YIjHYYHEZtKa-45" value="x" style="text;html=1;align=center;verticalAlign=middle;resizable=0;points=[];autosize=1;strokeColor=none;fillColor=none;" vertex="1" parent="1">
          <mxGeometry x="619" y="312" width="30" height="30" as="geometry" />
        </mxCell>
        <mxCell id="EEVbNRZ3YIjHYYHEZtKa-46" value="x" style="text;html=1;align=center;verticalAlign=middle;resizable=0;points=[];autosize=1;strokeColor=none;fillColor=none;" vertex="1" parent="1">
          <mxGeometry x="718" y="313" width="30" height="30" as="geometry" />
        </mxCell>
        <mxCell id="EEVbNRZ3YIjHYYHEZtKa-47" value="x" style="text;html=1;align=center;verticalAlign=middle;resizable=0;points=[];autosize=1;strokeColor=none;fillColor=none;" vertex="1" parent="1">
          <mxGeometry x="818" y="312" width="30" height="30" as="geometry" />
        </mxCell>
        <mxCell id="EEVbNRZ3YIjHYYHEZtKa-36" value="编辑" style="rounded=0;whiteSpace=wrap;html=1;" vertex="1" parent="1">
          <mxGeometry x="850" y="260" width="67.5" height="30" as="geometry" />
        </mxCell>
        <mxCell id="EEVbNRZ3YIjHYYHEZtKa-3" value="流程列表" style="rounded=0;whiteSpace=wrap;html=1;" vertex="1" parent="1">
          <mxGeometry x="562.5" y="260" width="67.5" height="30" as="geometry" />
        </mxCell>
        <mxCell id="EEVbNRZ3YIjHYYHEZtKa-49" value="登录后" style="rounded=0;whiteSpace=wrap;html=1;" vertex="1" parent="1">
          <mxGeometry x="850" y="220" width="67.5" height="30" as="geometry" />
        </mxCell>
        <mxCell id="EEVbNRZ3YIjHYYHEZtKa-50" value="执行时机" style="rounded=0;whiteSpace=wrap;html=1;" vertex="1" parent="1">
          <mxGeometry x="562.5" y="220" width="67.5" height="30" as="geometry" />
        </mxCell>
        <mxCell id="EEVbNRZ3YIjHYYHEZtKa-51" value="" style="shape=image;verticalLabelPosition=bottom;labelBackgroundColor=default;verticalAlign=top;aspect=fixed;imageAspect=0;image=data:image/png,iVBORw0KGgoAAAANSUhEUgAAAWUAAAGOCAYAAABPBhL6AAAgAElEQVR4nO3df1BUd77n/2e3iCJ2YyCOGMOFTCRoMMmMkKjfMZlsvs0dCTtrxmxyd6fDbHIz+X41hkpbVn13tvZ7GS5Vd+rurUvRKWK0vtnUTC1hdu+44zU3S3QGJuMk1lUTcG8mGkMwEQaNOAoTQEAQ6e8f5/Tvbn7ZDUd9Paos6XNOn/70SXz1u9/ncw62+x/4pg8REbEE+1wPQEREghTKIiIWolAWEbEQhbKIiIUolEVELEShLCJiIQplERELUSiLiFiIQllExEIUyiIiFqJQFhGxEIWyiIiFKJRFRCxEoSwiYiEKZRERC1Eoi4hYiEJZRMRCFMoiIhaiUBYRsZCUZO146e23J2vXIiKWcvHSpYTtK2mhnMhBiojcKtS+EBGxEIWyiIiFKJRFRCxEoSwiYiEKZRERC1Eoi4hYiEJZRMRCFMoiIhaiUBYRsRCFsoiIhSiURUQsRKEsImIhCmUREQtRKIuIWIhCWUTEQhTKIiIWolAWEbEQhbKIiIUolEVELEShLCJiIQplERELUSiLiFiIQllExEIUyiIiFqJQFhGxEIWyiIiFKJRFRCxEoSwiYiEKZRERC1Eoi4hYiEJZRMRCFMoiIhaSMtcDkOs3Pn4N3/g4166NzfVQRG4Z8+alYLPbsdvnJXS/CuUb3Pj4NfCNs3zFnaSnL57r4YjcMgYHL9P95VnGx0loMKt9ccPzkX2HAllktqWnLyb7jjsBX0L3q1C+wY1dvapAFpkj6emLGbt6NaH7VCiLiFiIQllExEKSeqIv311F2YUqvM3+JS48tas5uaOOpkmet33pYTwHllG9dS3OGNv0t+ymsuH05IMocFPthvrKBtoBWEl59Tby24znl3hqKMuN89zOA3iCgxcRSbrZn30x0EvHROtdFWwv7qFxhxGGlTsa4m6a765ie7EjZN/H2RUI33hOU1+5m/LqbXhcO/F6d8b+gHBV4F0z4Y5ERBIuOaFc4A6pcGvwPnKc1t61FJkV6fbatYFNOxp3BitpVwXeMmicpJIOFaiYzYp4MiWeGgpP7MRbuXPq7+emtI1X9z3GnRFLz7773+hd9wMyjz3FS6/C5uqf8dxdZ/hp+V/zVsh2L9XtxbVistcY5Pc/fZbKt6c4pO/+mIbn1pDuf3zuXZ6o2D3FJ4vcHJITym0NVO5oiGhfNFAf0Uoo8dRQ6H9OgZvqR3rZtaOB9gI31VszeX8a4ey33lPD9hjtiO21a6HzAI0hy2K2Lm6ZlsVuXtoSEngvedn/GHz66tu8yv/J/sf2sv8xjGAsjw7GVyue4tUJ97+NV/eti14cGbxhztG8JWS/3/0umyHsw0DkZjcL7QsXnuplNE7WVmhroLLS3H7rWnobd5NdXYPXEe8JA3z2GdAfvvSodyf1oQuiPghKw/bRuqeK+jb/UG+hloUZjn969ylewsv+x5bw+58+awTiq7/h9+t+wN1n/hvuyrfNwF4SXvW+5GX/Y5OVyoP0xlx8IqryjunttxXIcstJXigXuCkvduBkNY07DrC+uor1703c7TVOwpWS13kAT/NpaI4IWFcF3jWnApWs0VPehrfYXD9w3GydTLXKdlC0tYai0EWdp6b+Hm9kb/817re/S3X9Xvanw9lz57j/ub3sfy5kmzU/YP++HxghuuU38N2Qda96eGLCUjlOpSwyh1be/XXKHt8Ud3139wX+Ye8vZ3FE0ZITyq4KvI/00tgyQOEFMxwrD+OpLcXZeSBOxWzMiihyQOzyKraonnJbA/UtVWz3uGiatA1xC1fKfJfq+h9wf/o5mrd44rQizG0AeJu33maS9kO0O5/by/7nInrL6Wt4bt9enpvwmSb1lSWB0tLSALDZbDHXL1mSMZvDiSk5odxch6fZqGQLgws52VlKXm4pXg/RfVtXKfltu9nFM2xfen0v395wmI7aUjyuZrxd17evm1V1vdGe+ClP8ty+vbgm2Hbw3G08vW8vz5ltB3fME3dGZdw7lRN7U21fiCTYxydOsqrgHlasuCPm+qbmd2d5RNFmcUqci8JcozI9WlxFtbuD+osDFGKEdzlvUtlwmvwpzKCYXDNec0odBRNtd+u2LyrLnwJgc/WTDJ4we8cxbK7+GU/zG9wVoeuNCto/QyMonczQE6ff/TENz93GkdBKPPc20vlT4t6IyDS9f/if+Yunn4yqlj859SlfnJlwwu6smLVQzndvJK/zMN42oK2KSiDfDZnLVpK31EHviSlcCBKDM7KnPC0R7QuZorepLL+TV/ftZX9BeHvhzse8vPSqh1fNE4Fn3403S8PfPon/KhN9WIjMVPeFCxz74EPWPfRgIJiHhob47aH35nhkhtkJZVcF24uhdU94y6L9Qg/ONevIzhygZwpthvxlWVHLpjtPOVSTt2p6T7hJpftP6MUxeCLWUmNK3Ut1P6O6uoD7b4OzDPL7E+DatxcXg/z+p09FtTI2f20JfNXGW0DRBPOYX6rby4breVMiEzh67EPycnPJzl4GwG8PvcfVBN9YaKaSfPHIAK17VlLuzqOjcWd0Rdp8io6yUooGjrMrXrUadiEKdDQGg729wai4gZApdWBczl1Knvmov2X3JFf5xXutuqk864b2VuWzvPWSl/0FbREn1L5Ldf2T8IsJesQveXGtSIclZ/hp+R8p2bcOPvTwU4wLTlqjnvddiu5K5+yx3YRP5RCZfe8f/mf+7ZNPcPKTU7Sf/nyuhxNgu/+Bbyb2ZqAyq0ZHhilYff1TRl6q24trif8EnNla+OoEP/31XxuzLsI2Nucoh52wizjRF9K+CPSdzQtUjNkeal/I3LvrrjwuXLjA0NDwjPfRduoEqQvSEjYm/eaRW1Tsy6Qjpqqlr+G55/bynH/BuXd54tdfo+ExAlfevVS3l/3+/QyeoMmfoeY85pfq9rJ/n9Gm+GNBZI9Z7QuZW2cscGIvkirlG1yiKmURmZlEV8q6n7KIiIUolEVELEShLCJiIQplERELUSiLiFiIQvkGl5qayuDg5bkehsgtaXDwMqmpqQndp0L5BpeWtoju8+cUzCKzbHDwMt3nz5GWtiih+9XFIze4a+M+HA4nf+z+ktHR0bkejsgtIzU1FYfDydWrYwndr0L5BucP4owlmaSk6D+nyGwZGxtjeHg44cWQ/hXfBEZHR1Uli9wk1FMWEbEQhbKIiIUolEVELEShLCJiIQplERELUSiLiFiIQllExEIUyiIiFqJQFhGxEIWyiIiFKJRFRCxEoSwiYiEKZRERC1Eoi4hYiEJZRMRCFMoiIhaiUBYRsRCFsoiIhSiURUQsRKEsImIhSfvFqUtvvz1ZuxYRsZSLly4lbF9JC+VEDlJE5Fah9oWIiIUolEVELEShLCJiIQplERELUSiLiFiIQllExEIUyiIiFqJQFhGxEIWyiIiFKJRFRCxEoSwiYiEKZRERC1Eoi4hYiEJZRMRCFMoiIhaiUBYRsRCFsoiIhSiURUQsRKEsImIhCmUREQtRKIuIWIhCWUTEQhTKIiIWolAWEbEQhbKIiIUolEVELEShLCJiIQplERELSZnrAYiITEdGRgYlLhcPPljMypUrycrKxG5PfH05Pj5OT08vp0+f5sMPW2hqbqavry/hrxPJdv8D3/Ql/VVERK6DzWYD4Ic/fJ7v//t/R2pqKvPnzyclJSWwzufzce3aNa5evcrY2FjCxzA+Pk7Dz/87r7/+XxO+71AKZRGxLH/g5uXl8p9+9CMKC+9l4cKFpKRM/CX/2rVrXLlyJSnh3Nb2GX/zk5/Q0dGZ8H2DesoiYlGhgfx3/+W/cP/997F48eJJAxlg3rx5pKens2DBgog1C0h3OkmPXAykOTJwxloRoaDgHmr+/u/Jy8udytuYtuRWyq4KvGV5E27S0bgTbzOAC09tKRNvHaLzAB5vB+XV2yhyTL658Torp7w9AAPH2fVeJtvLsmjdU0V9W8i6AjfVW9fSGxh/tHx3FduLHXQ07qbnkdiv63//JZ4ayjKPs6uygfaYewuOvb9lN5Ut66jeuhbnVN9H2H5deGpXc3JHHU2xtndV4F1zCs+BZVSXXqDS22y+findlTGeYx4LZ+cBPPEOhsg02Gy2QCjv2f0a999/H2lpaTPa18jICFeuXAkuSHOQkWpj7Eo/gyPmsgXpOBfO41roskm0tX3GC//X/z2jMU0k+Sf6JviHWuKpoTDwqBnvjsjtjKBmguCrr9xJfeiCAjfVbqiPGW6nI7Z34aleRmNlA+0ThI6n2YWntorylh6KisM/NpxlNXjLgo87Gg9Amfnh0nkAzw4z0B7poDEiBPPdVfif2uTdCZ4atnsuxP2w6Wjcicd/HArWxQjbGMzjYRzLjfREfrhMFtCsNtcfCNl+I3RCXq45wIHj7Nqxc+JxiEyRP5BtNht/+ZfPce+9q2ccyAALFiwI9JoBGB7git3JgpQFMDICLCB9QQq+0b4pBzIYFfMLL/ww4T3m5Idybine2tK4qztOxF5e4qmhzPx20LHMTXXtWmjZTWXD6cA2/ko0lu21ayOWDBjVbk509R62bW1NICiDVXzwA6O+AfxVa35b+HgCmpvNajP2e4unybvTDMaVQHSIX59mvI2r8brdHK28EFha4ikls2U3TWEfUKFOGc/zrKMVKPQYH5KNy6oovxjn/YvMkL86ttlsLMnI4C+efopFixZd934XLlzIVXsqzoUp2IJLychYGNwoNYOMVOPH8dE+BoYn36/7+/+eX/xib0JnZVioUg4uK8slUGWWeGoovNBA5Y4GSjw1eGvD99kfEdSxK+WVlFc/E2NM8Stl/9hKPDWUEf4eSjzbKOo9gMd83Xx3FeW8aYwjrGWTh7e21GhfkEdZSOD7dTRO8ThOJGabKEaoN9fRuKaGMpdZ9Ra4eTjzOPXe0zBR46i5Dk+zcXxOmh8c+e4EjFskBn+V/Nhjj7FgwQLmzZt33fu02+3MH79Cf99g2PI0R4axfDolcsR+S1wu/ucvf3ndY/SzTqVsBkt/y2483tjVV1MgEKrw1q6mcUcVlaykvLrG/Ko/QGujEcV5IVV0f8tuKiurjJ3kTG/4Td6ddLir8FYvY1dlA3mB3m8wpNsbDtNb+wzlLVXUN9fhaY4R5s0RbZZJxQ7xQMUfuTjsw89oScR7P0248JQBbQ1UVk42jtXhvf7aGsrooLUFnMXb8BaHDm0K7RSROELbFjabjbVrv0lqamrC9j9//vxgCyOBHnyw+AYKZTOgrmfb4Ff6oPaGKjwN/keRfWLA3E9TA7FFfFDEbV+cCHk9gAI35bkAa2O0RyDP7eaoWXVnZwJsxOPuoJFn4rZZoIPGRigryyMQuG15ZDliVLoFbqq3ZtLdBhTE2V1c0Sc58/zvdeA4u0JaGuFO4d1RZ7aKemjdc4D6ttPku6vIN7+llHiqyD4Q2asWmRl/KN91113Mnz8/YfudP38+GRkZ0SvsEW0MAMYZ7RtgCh0MVq5cmYjhBSQplKc5kyIQRlObHWG0LPKm+RqY1WRI+Jsh9/5Ue7dtRhslNqNFsr4A2llHFgMAZBaXkrcj5EPEP7MhoqXT1BzSYilYRiaQ7a7CW9AeqD5LSo3ZHjPrM4d+eMU6ueeK/9QCN+XF0D+QR9HWZ2BPFUdnNAaR2EJ7yf4/t922JCGti1Dhvd80HBmp2H1jXOkfZGYNDMjKykzE0AKSFMqxZlIQN5AidUww26LEU8PDE7xGWH831uvHaKXEbhOEjKUrpE8deA8dRog2VHG02HxNs0VS4smnp62HvKWnqG/bSLl7JU3TOSGWk4mz8xT1Dc3UF7iprq3BiflhFO/QRbWJOjgZut4/bS1kUaBSpoPGHafi7HgZ5e619DbupueRUrobocztprsNei/oJJ8kTjCYjZ99vuRe15bmSMU2doUrLGChI42RqZzZmwVJ7imvDARX4KttjB7zRCE8mdBZGkERvU781XWwSs53V7F96eHwD4g4lXO+Ox9n7+Gp9UoL3Dyc2U79iUyKlhqtj8oCN9W120ICMS94DKJOhK6k/JE8Ot6rMx7mZAae5yzehndpnBOnk/WUQ6r8Ek8ND0fNnHBFnXQFIHet0aZohvJHCLSZSjw1EK/jITJDRjAblfKf/vQnvva1ryWsWh4fHw/8nObIIJVR+gZHgBHsjgwyHNA3g2Du6elNyPj8khvKrlKKHD00hvYaE36BwUDgwo4STw2FJ4IXY/h/NqrnsIGxvgBwmB8QA8dpbMunrBha91RFtQfyljroOGGMuWRNHh0n6jCmrUW9YTz/IY/ud/+GdiqCi0PbHpN9W8hZR37vAd5fY85/7jyAZ4cZ0GZfuNrdQWVLyHOi+vFxvqmA8aGRO0D7gcgqtxlvrJN+nQfM8A59vy4Kczs46Y39EiKJcOZMB3fffXfCQvnatWuwcDEZC+bhG7tiBrJheKCP8XQnGRmpU54O53f6dGK/MSYvlF0VeMuyaG3poay2hsLGnUz133BexAUZkfovXu/gmqmvbKYef6W9ljKzsi7aWkF3RK81EECuCspyO2iM90YKlpE51kG9MdtuGsyLZDo7yHsEdlU2005zjN6x0Rc2XmsdOGKfcIwycDz4OluN+d4TnZTLX5YVfBD5zaa2guyWLPI6D0/5v6fITHz00Uds3PitGJdKz8y8lBSc46P09V2OuX5ksJ8RFpDuzCAj1Rd+xd8EPvywZfKNpiE5oVzgproMGncYVWd9gwtPbY35jzgvRl93IOwy5qn1lKfAvOjECXQ0GtVe5InEjsadeMLSxRhrmX8crCZvoJeT7iq8xT0xL+hov9CDs8xomfS37I5oc8Q66Rl+DDraOsj0z7d2VeCtrZnkjXXQuKd3mlf0BS8UiX3BR/ix6WhshjZinNg0ruhr3aPLqSUZzD6yz8d777/Ps8/+BxwOx3XfmtPn89Hf1xfoW8c3wmD/1E/5jY+P09Sc2H8LukuciMy50FkXdrudefPmYbfbeeYZN8+4vx97Kts0DA0NMTo6OoVQnp76NxsSfpm17hInIpYQnG3hw+cz/vz85z/nxIkTDA/PfGbE6OgoIyMznfAWX1vbZ0m5t7JCWUTmnD+QjTAmEMrj4z7qXn2Vzz//YkbBPDIywuDgYMIr5IsXL/E3P/lJQvfpN29Z9vKqpOxZRGQawi8gCbY0+vsH+Oj3/8Kf5eSwZMkSUlNTJw1Zn8/H8PAww8PDYa2RRGhr+4z/96/+Kmk3uVcoi4hlxAvOvr5+mn/zG3w+yMm5M7Bt5HS5q1evcuXKFS5fvszY2FhYGF9vKI+Pj/Nmw8+p+utqvvoqeb+rTyf6RMQyQgPUbrNhs9ux2+3mCUAjYJ1OJ488/AgPPHA/eXl53H57Fna7HZ/PF3ay8HoDWb84VUSE6PtgGGFsj9+G8PnwgdmDHg/0o0P/3EiSf+tOEZFp8Fe8/jAdHwebbdwIZDBujgHYCMxqjhnCN2Igg0JZRCwoLJh9PnwTtiKCMzb8zw39+0ajUBYRSwqEqs1mBHNEBR13e27cQAaFsohYnD9gJ7ud540cxKEUyiJyQ7hZQncyuqJPRMRCFMoiIhaiUBYRsRCFsoiIhSiURUQsRKEsImIhCmUREQtRKIuIWIhCWUTEQhTKIiIWolAWEbEQhbKIiIUolEVELEShLCJiIQplERELUSiLiFhI0m5yv/T225O1axERS7l46VLC9pW0UE7kIEVEbhVqX4iIWIhCWUTEQhTKIiIWolAWEbEQhbKIiIUolEVELEShLCJiIQplERELUSiLiFiIQllExEIUyiIiFqJQFhGxEIWyiIiFKJRFRCxEoSwiYiEKZRERC1Eoi4hYiEJZRMRCFMoiIhaiUBYRsRCFsoiIhSiURUQsRKEsImIhCmUREQtRKIuIWIhCWUTEQhTKIiIWolAWEbGQlLkewK1sfPwavvFxrl0bm+uhiMg0zZuXgs1ux26fl9D9KpTnyPj4NfCNs3zFnaSnL57r4YjINA0OXqb7y7OMj5PQYFb7Ys74yL5DgSxyo0pPX0z2HXcCvoTuV6E8R8auXlUgi9zg0tMXM3b1akL3qVAWEbEQhbKIiIUolEVELEShLCJiIUmaEreS8uptFPUewONtDltT4qmhLPM4uyobaI/z7BJPDWW5A7TuOUzW1lLyorYYoHVPFfVtSRi65Tko/PZ6Fn/RxLEuc1FOEY9/fZDDv/uUjAdLuPvyUQ6dGoj99JwiHs/u5p0Pzxk/F2bGfaWek/7XWMG6Tdl8ebCVrohtnKs3sjF3mI9jrIveLo2hzqN8vng992XF2mqYziOHOdk3wY5EbnJJCuXT1Ffu5Ki7Cq9nGa2ZaylyhK5fy/batcGHA8fZ1QDlW9fiBPpbduPxngZceAaiA7zEU0W2P/jN/XY07sRLBd6yyAjvoHFHHU3JeJtzYoCTX/TyeOFGCvuNAMvJzmToj5/RD2RMZ1ddrbxDSEj7Zazi0Q3pfOlP2Yx+vuy8i/s2FcHBbu7YdC/hmZrGfZtKuC9kSc/JJo71r+LRDTksAuj5hHcOGq+R82Bo4Ps5KPz2A9MZvchNKakXj7Q3VOEBoIF6AFcF3jLihmTljgby3VWUT2nvp6mvPEBWbSk07sTbDLggKoRdFXhra3i4ZTeVDaev9y1ZQ1crhxdvZOM9Kzj5mYO7s2BR1noezzXXh/5Mr1HFZoQEJJk8vuleMxhb+Ti7hEdX9xvVtbnd8MmmYOXbN0BX32FYXMLdqz/j0EHz6OYU8Xhh2gTV7accOvipWZ0n62CI3FySE8oFbqq35tMe2mIocFNdlkXrniozMF14aldz0gzQfHcV24v95fQ2vMVG+wJHRFUNwACtUx1Lcx2eLjfVW5+hvOXmaXn0nzrMO0DOgyUs6vkkUOnmxGtf9IUGZHhl3PVhEzxYwuObwGghNIWFrHP1RtbyEYc+DAnqjFU8GhbIcdoqgfaI8UFAzyd8DGQVlvB4YeS7Gqbzeg+MyARW3v11yoz/0WPq7r7AP+z95SyOKFpyQrmtgcodLjy1NXgad+LtclO9dS29jTtDQrGZxpaNbPe4aPI2G1V1g9GSyG8LqWp3NMd7lWmN5/3OGspKXdS3JWB/cyjnwRKzH2tWwKFBORMhFfRQTy9kZZK7oYj+0B7x5WEoXM/jiz8J60X3nAwN7wFO/ksXj24oIqfLfG5XK+90mWPmk5APgnPXN2aRGUpLSwPAZrPFXL9kybQagEmRxPZFM14zUEs8Rq/YWVaDtyxyu1I8rmaj/UAeWQ6g4Bk8ripOrqmhLDdye9PAcXZVXpjyaDouDsDSab8JyzFC2DjxRlhLIkRY+wKjnxvaM86616hagViVsXFir4T7/Cfeulo51L+KRzdkk0M/zq8b1W/sahfu+/Yq+n73Kf3mvu7IAobv4tEH4VB39oQnF6PGKpJAH584yaqCe1ix4o6Y65ua353lEUWblRsSNXl3xj/R5qrAu8YFzc3gWk3mwABOgEfcdFTuNHvSmL3mNyP6wq5kDtv6/C0JQloMpwZitzAyIk66RQWfeaLtXw5zsu8cxw5GrO/7lEMHzZ9/18TJuIMy9pOTgRH0OdmkDQ8bq7LuZV13E+8cDN02ouUhkmTvH/5n/uLpJ6Oq5U9OfcoXZzrmaFRBSZ2nXOKpweMCY4pcFeUFGCHscWH0lCsoaa4zp82tpPwRaG+D/rY3eb93LWUJzNy8pQ76L879AU+WjMVpMZc7V2/k8QdXmKHaxDsne4Mrc4p4fFOJ+Wc9uWlp5G4oCS57cEXIC6zi0U0bKcwAo5IuIse/j2+vwomDwm+XsC5ngJO/C574y8lO4+Ifh2HoDIdO9pKVHbJPkTnQfeECxz74EJ8veCOhoaEhfnvovTkcVVASK2UXhbkD9ByY6ualFPWeYhcbycesrl0VeGtDp7htw1ts/NTfspvKhinuu8DNw7kDtB+4SWZfRDD6zL18/GH03OSMxWkMXe6P/USz52sIrZRjbOtMZ9HwJbqmM4c4p4j7OMM7l7PJXex/PaM1EjalLqQNEj1VTiTxjh77kLzcXLKzlwHw20PvcTXBNxaaqeSFcsEyMgfaaWwDCtaRT7txki8netN8dxVljnZaDzRD8cbgiuY6PM3BbaLbF9GXlURxGXOXO8JOMt7gcrLJAr40v/7nDgXnAAN0dfdyX6G/rzxM52cxLiSJ14/eUEJYO9oMydC50ORkkzU8yKl448tYxaPfgONfDNL52Tlwhs6HC22NqH0hc+f9w//Mv33yCU5+cor205/P9XACkhbK+cX50PYm7ayk3L0W2nbHvYIvb6kDTjRQ3wb5xVN9hZWUV5tX+5XV4GEnXmNvlNXWEDyf2EHjjgl62jcY/xV0nZ1p3LfpHj4+2MQ7kRuFVcBxhPSjDRNVyiu4I2uYi58NACtYV5hJz8lW4tTfRlXNIHR9avSenVN8cyKz6NyXX/JP/+sdLlyY+oSB2ZC0y6zXFzjofS8PT20pmTEv3OigZ6CUstoaoINGb8TqAmMaXfi/52D7wrjUeieesOo3WFnfrDIWQ+eRVk72wckvV/FoxJV0MfV8wjsfwjrzSryek1Oe5W3IySaLYb50FvH4hrQYszUABuj64zAbC0t4HBjq/CxmaAen9IUIm8WhS61l9pyxwIm9SLb7H/hmYm+bL1MyOjJMweo1cz0MEblObadOkLog9on2mdBd4kRELEShLCJiIQplERELUSiLiFiIQllExEIUynMkNTWVwcHLcz0MEbkOg4OXSU1NTeg+FcpzJC1tEd3nzymYRW5Qg4OX6T5/jrS0qOtir8us3CVOol0b9+FwOPlj95eMjo7O9XBEZJpSU1NxOJxcvTqW0P0qlOeIP4gzlmSSkqL/DCI3mrGxMYaHhxNeVCkN5tDo6KiqZBEJo56yiIiFKJRFRCxEoSwiYiEKZRERC1Eoi4hYiEJZRMRCFMoiIhZiX7x4MXa7sllExArsqeNTemcAABjySURBVKkLWLLkNhYuTNyvMxERkZmx22w27HY7DqeTJUtu0yW/IiJzKMUH2AB8PlIXLCBr4UIGLw9w+bLuXpZsD2/cyOYn/g25f/Zncz0US+j8wx94a/8/8f7hw1N+jo5huJkcQ7GWFBuAzQY2GzaMgHY4M0hLW0R/fx8jIyNzO8Kb1MMbN+J2f59/3P8Wn7WfnuvhWMI9+Stxu78PMKVQ0TGMNt1jKNZj9/l8YP7xmX/w+Zg/fz63L/0aS5bchs1mm+tx3nS+973NCpMIn7Wf5h/3v8X3vrd5StvrGEab7jEU67GHBq7NZgsGsFk5L3Y4WH7HChalp8/NCG9SOTk5CpMYPms/TU5OzpS21TGMbTrHUKzHqJRNPvOP8cAX+HnevHksvX0pS5d+TScCRUSSyKiUI3rKkY/926QvXszyO1ZoXrOISJKE95SBqMfmMn9FnZKSwm2ZmXM5ZhGRm5Y9soccWTlDRK8ZcDicsz5QEZFbQdg8ZZ8ZvDazKvb5g9nfdzbXq31hMcVbePmuTl7Z2xpcllPCC0+soGv/zzjYNdlzini6Yh3LY2x2/shrHLntWbas6udI3T4+iNzHBidt8V4DyCl5li2rFnH+yFv0P7CZghi/+Pf8kdf4RcuU3601FG/h5Q3ZU9iwmyN1+zhfomMoUxNznnK8x36aIjc3nE4HIyOjEXPHV7DpASdtv241gzif0H+zBU+8SIH/QfexQHA/dFc258/sC2441M6+N5oIzYWHnnqRPKCr6We88mkJL1RsIfNTJwWrwlMh7DUYom3/xzifMEO++xiv1LWa4+yOCqWckmfZMMPjMZk7V6xg3briwONjx1o4e+5c9IZTDtihsPAc+vQtXm86Zxz39b287v+Aez6TI2800cUKNj2/Drhxj6HMvhSfzxesjM2FoZWy8YPx2B/GoTM2ZHYsXXo7T5pzT3/5j29x8eIlY0XxOgr6P+aVLiCHsOANU7yFl+8iPICyX+TlDTD0aTt9i/LZUpEf9bTzZ8wfupp4vc748WAT+Ktr4lVoda3B15xF965exerVRrw5HU6cTkdgndPlpH+gH4BTp9r45NSnxoqWfbwS8R5ySp5lE01G6CbKDXIMZW6lTDZPOWo5qpTnjM3GgtRUnvzeZvb8f29gVE5w5I1WHnrqRR6gG7LzebliXeznd3caAXQhtLIzNTXFedEVbHp+Mzl/eCskoIwKMOPTt3jdDJOHnnqRvDNmuIRVntm8XLHO+OpNNhsqXoyq6s4fmcnBiK2/f4Bz574E4BxfTrgdEPPbRdBmXl4VucysloFFq8LXhx734AdcN0dusGMoc8uolP0VsLkwtMdsw6iMA20MVCnPpqVLb+eRh7/F/2o8yC/37efJLU/wxRcdxsqce8lZlE1BxYtGhXw0kxfWd8aulEM8tD6fvjPHePr5Eo680cTyp14k/rf3bo7UvUbvUy/y8lPHeGVvN5ue30xB/zFeCakiPzjazgNPbOGhln18YFaeDz31IhsIqdxbXuPg9R+SCZ09d4716x5kxYo7Jtzu6LHXjB+6mni97hM2PV8Cvw62JqIr5dC2BNAVXV0/9NSzZB6N0xt+4zUeukGOocytlOnMU/ZTpTw7/C2LBQsW8OT3NtP0m3f5+X//h2CV5w+Up+7l5F6jpwy5cU/aGX3jXvKyu+nYC3kPGIs/2PsWmc+vo/eN8F6lETLmsr2vGX8XbzFONC1aF7Mi3/BUER/sNfqfmU6A+3i6pJsjlLBlVex61H8y7IM4a2fHooi+LkRVykPtxt8TVddR+yDQr//gpj+GkgjhPWWbDSIfg3rKcyA0kAGcGU6cDgef+3vJpoee2kxBNhRU5HO+u5tFQJ8Zvhuez+RIxN/kZJJBNhsqjNJ4S0X+BF+Lh2iLHFiM/mtQEU9X5PIQrXyQcy9OhgDIWLWO5XU/4xV/hyTWbJE5F34SL16lDJgfhk3h7YYYckqeZcOffha9/qY9hpIIKTOZp6xKObnuXb2KRx7+ViCQR0ZH+eW+/cGTewFF5GWHzAIo3sILtw3ARNPIzUCJmiUQ46z+Q089S+AyoZAQCAZWNk9X5NJRtw/8AVVnzu5Yv4L+P/SzfEknB/9wH5tKVvBBIk+aJdw0KuUQyzcYJ0vjCev13vTHUBJhRvOUVSknz72rV1HieizwOH4gA7QG/gGDMc2t70wnrFrHlgpjWdjfoaGSk0mGOeNi6NNjdE1SKT90VzZDXx2b2pvIKeEB5zkOnnFQsMSYDvZ6TgkvVGwO+cqfHfzqHm/GyKw5x8E3wnu1U519MdH84Mipajf3MZRE0TxlC5leIPsZZ/aNCwqGaDsKzgnaF0vNCxEYGmIoMDd5BZuej1Upv8iGJ56F/U3gHKLr6DlgBYV/Bl2/PgfEODuYU8ILj2TS9dE/0MWW4PJAhY71vnrHnaccPfsiMoSnXimvIPNmPoaSMJqnbCGhgXzp0iX+5763Jv4lA4Gr9l7jlWVbePmBAU52MeGFBBeb/H3JkB6pKS9qFoZ/+lcJL3COg12QU1JCAefYF+fqM5Y5WDR6moMtQHGcbazmOuYpT7lSzrmXnJv5GErCaJ6yBU0pkCHsYoSH1jtp+/U+uigyg6CVX7xhbvbRFl6uyIfuY0TngHmJdXc3R868xi/2Btf4e8o5q1awqP9jY+qcM/rKP4DzXw2xYcOLvAycP7IvYm2sy7izw2YezNllwhNezRd7nnJXF+TkmE2E7IkrZXiRlzcYz7lpj6EklO3Rf+Xy2e12I3jNv+1mCPsfB5aFPP7ic91c/Hrs/cX/4P/50X8OW3bnihUAXLx06Zb+NVx/97d/w1NP/7tJt4t1DAG+/chGlt5+e9zn9fcP8Ovm31zXGK1uqsdQrEfzlC0k5n0ZZNp+955+N53cuGLeT3lN4b1x76cM6imLiCRL1Dzl27OyWLv2GwCcMm/Yop6yiMjssEf+Tr5Lvb00Nh6kaO03WbV6VWAdqpRFRJLOHlrz+nvIPT09vHPwVzxUvJZVBfdonrKIyCyJ+9usL128xDsHf826h4q5J3+lKuUEO3v2nHFcJcw9+Ss5e3ZqJzx1DGObzjEU65nwt1lfuniJ4//7I+6//z5Vygn2q1/9ii3f26xQCXFP/kq2fG8zv/rVr6a0vY5htOkeQ7GeCe8St+LOO1m//iGaf/Nbwu67rEr5ur3720PY581j03f+nB8+/9xcD8cSzp49x1v/9Dbv/vbQlLbXMYw23WMo1mP7V4+V+PwXioReNHLnnSsoe3wTv3n3EJ2dfwjMwLDZbNjtdj4/HX3HLJme1NRU0tLSSElJmeuhWMLY2BjDw8OMjo5O+Tk6huFmcgzFWmLeJW7F8uU8vuk7vPvuIc6c6cAeMm3O2FSVciKMjo7qH8910jGUm4098gq+FcuXU/b4Jn576Hd88cUZ3SVORGQWRd0l7tyXX3Lod+9x+vTn2Ox2YyvdJU5EZFbYY90lrr39tO4SJyIyB+LOU/Zf4Wf8qCv6RERmw4TzlHWXOBGR2aXfZi0iYiH2yLvE6bdZi4jMnai7xPnMn0N7yrpLnIjI7Iiap6zfZi0iMnf026xFRCwk5jxl84F6yiIis0zzlEVELETzlEVELETzlEVELETzlEVELETzlEVELGRG85THx6/NwVBFRG5+M5qn3N/XP6uDFBG5VUx7nvLIyAi9vT2zPEwRkVtDSthvqTYXhv7OPhtGD9kG9A/086fe3rkZqYjILSBlKvOUr46O8tVXf+LKlStzOlgRkZvdpPOU+/u+or9/+j3kpbffntCBiohY1cVLlxK2r5R485SvjIww0N/H1atX53yQIiK3ihQf4T1k3/g4l/v7GBoamuOhiYjcelJCe8hXhoe5fHmA8fHxuR6XiMgtKcXn8zE+Nsbg0CCjIyNzPR4RkVtaypUrVxgaGpzrcYiICGBXIIuIWId9rgcgIiJBCmUREQtRKIuIWIhCWUTEQhTKIiIWolAWEbEQhbKIiIUolEVELEShLCJiIQplERELUSiLiFiIQllExEIUyiIiFqJQFhGxEIWyiIiFKJRFRCxEoSwiYiEKZRERC1Eoi4hYiEJZRMRCFMoiIhaiUBYRsRCFsojccGw2Gzabba6HkRQpcz0AEZHJhAbwfWvW4HZ/n29+8xvcdtttpKQYMebz+bh27RpXr15lbGwsIa87NDTE2bNn+eij33Po0O/4+MSJhOx3Irb7H/imL+mvIiIyA6FhvPLuu/nRj/4j3/jGA4EgjufatWtcuXIlYeHsd+TIUV5//b9y+vPPE7rfUPOWZS+vStreRURmyB/INpuNTd/5Dq+8Uktu7p9ht0/edbXb7aSmpgJGQActIN2ZTiojXL0W/pw0RwaL5sNI5IoQOTl3snnzv+H8+e6kBbNCWUQsx98zttlsfOfP/5wf//ivSEtLm/Z+UlJSsNlsIRXzNa7aU1m0YCEpocG8IJ1F821cGx2KCutYHn54Y9KCObntC1cF3rK8CTfpaNyJtxnAhae2lIm3DtF5AI+3g/LqbRQ5Jt/ceJ2VU94egIHj7KpsoD1soTnOmOsAzNfoPYDHeGMBJZ4ayjLjPS9km9wBWvccJmtrrOMxQOueKupxU711Lb2B4xdD4Ph30Lijjg53FduLp/bm+1t2U9lwOvA4311FOW+GLQt/z89AQxXdpVVkH6iivs14/eplB2I+J/g+zW1FTKGBvPLuu3njjddxOKb6jza2oaEhrl69Gni8IN3JAkboHxzBqJ4XYr/ax8Dw9Pb7l3/5w4QHc/JP9HVGh5NfiaeGwsCjZrw7IrczApAJgqe+cif1oQsK3FS7oT5m8J2O2N6Fp3oZjZUNtLOS8upSuivraIr3XgqMIHQCONayvXZt2Gp/kNVX7uSouwqvZxmtmWsjPgQinjdwnF0NUG7ut79lNx7vaWNsMYK/xFNFNkBbA5V7oHprFeVdVdTnxPgAHDjOrh11gefnEx22sRgBbPy9fenhqP9+Ewc0ZJVWUV38JpUXgttvX9pDR25e4EOmo3EnHu+Ew5BbUGjLwmaz8dxzz7Jo0aLr3u/ChQu5ak/FuTCFYJd6IRkZC4MbpWaQYXQ8GB+dWkC/8MIP+Y8/+k/XPb5QyQ/l3FK8taVxV3fEOZlpVFLmNsvcVNeuhRjVW7zKLzIwAxVmjPAK27a2hjL/2AIfBmb1y3F27dgZFfb+Crg+ZGztDVV4AGgwPgRcFXjLoHFH7NCv3NEQCMMpa2ugcof5c87UAnc62hvepLV6Gx5XM43+hQVuyot7eH/HafLdVZRdqIr6wOw58CY97mcopweWllKe2c6uyguU1cZ//yJ+/kBeU1jIt771fzBv3rzr3qfdbmf++BX6+wbDlqc5MozlgyMz2u+GDeu5b82ahM7KsFClHFxWlms+b0ezsc2FBip3NFDiqcFbG77PqCCKWSmbX6+jxhS/Ug6MrSDYJvA0u/DUVtGzJ/j13FuWZ1R9zSGvvzWf9tCv5QVuqsuyaN1TZQaSC0/tak6aARX+4bINb7HRvohVjcMArZMe9MmFfuhFHxe/09Q3HKfa7SbPfC8lpcaxaMKovGM7TX1lldG+4ACVZuUvMpHQtoXNZuPhhzcGTtYlwvz588NaGIny6KPfvsFCeaqVshlwwa/v0Zq8OwMh5q1dTeOOKipZSXl1jdkiGKC10YjivJCg62/ZTWWleT4zZ5rjbzM+EAzNePcso3prDV4wPzjqYmzvwlNbg6dxJ96uYKgHe6fNNLZsZLvHRZO32aiqG4xqPL8t5EMmqp0zMWfxNrzFMVbE+WDsCG0LuSrwronz/iuNY/4wwf8GE8kqrcK7NfRDBvpbjtNLHmUh30SixiBCMJwLC+9l/vz5Cdvv/PnzycjIiF5hj2hjADDOaN8AU2kxP/DA/YkYXkByQ7m5LlhBznDbWCFghJj/UWSfGDD309RAbBEfFHHbF2EffsETkf0tu/G0rKN6ayleDzECL9gfL/EYvWJnWQ3esojNKMXjajZDKY8sB1DwDB5XFSfXxKhk/Qba+Yx87nEQCNz8ZVkx2xclnhoevtgRZ0eTiDpRGwz9jsadwZZGhJ4DVXjbjOOV2XmAem8z7bjwFBsnHJsK3FSXXqBSaSymyF6yzWZj+fLlCWldhOrr6wt5lIYjIxW7b4wr/YPMrIEBd955ZyKGFpCkUJ7mTAp/v7dtarMjjPDJm+ZrYAZYXUSrIZP3J+hzBlsLHTTu2InX7C8HKtKwgI+eTTBhZemqwLvGBc3N4FpN5sCAcRLxETcdlTvNnvQEJ9ZCqtu8pQ64uA5P7bbgidECNw9nHqc+zjePSYV8UMYaQ747/lNLPKXG+8ktZbsHndSTSQWD2fh5JlPgpiPNkYpt7ApXWMBCRxoj0516YUrEichQSQrlWDMpMEPkVNwes99EX2lLPDU8PMFrTDgzwFURs5US+ZU6ciyeHYDZJvE6zEo5RkVaxuFAIJd4aig84Z+GZ0wXq8/xv38CPWWP/0TiI9DeBvm8yftLt1HmapjG1/qVZGcO0H6ggfoGs/deBv6pcPGm3+VFVu+dp6LfU1i1Hvww6m/ZHf7tJFRxhTH1771Mypcdpr2gFI/rAAz0MsOaXW4RRjAblfLQ0BDXrl1LWLU8Pj4e+DnNkUEqo/QNjgAj2B0ZZDigbwbBPDQ0lJDx+SW5pxwSSP7qMUaP+Xr6ijFPWBHdWzWq6/DKL2q6V5zKOTindieeyDm15olAwoLaRWHuAD0HpvgmXKUU9Z5iFxvJx6yuXRV4a2O3DqLaFK5SimhnVxsYAe1fkUdZbRXZceYCT9ZTDlT5cY5L7ErZQVFxD407Gmh3VQAd1FfuNPYxpYMhYjh//jx33HFHwkL52rVrsHAxGQvm4Ru7YgayYXigj/F0JxkZqVOeDud39uzZhIzPL7mh7CqlyNFDY2ggTDAbY2aCLYNgdRr+c/RUMxfrCwCH+QExcJzGtnzKigmZIREU2YII/yAw2hphzylYRuZAu/G+C9aRT7sRijFOMua7qyhztNN6oBmKNwZXTNI6CFWyJovW93opr63BScSHh6sC79YKunfUhVWpUW2VCfr/JaVrcXYeiNnbj+5KDNC6J7odlF+cD21vxq3aRSJ98skpCgsLWbBgQUL2Ny8lBef4KH19l2OuHxnsZ4QFpDszyEj1MXaln6nMlPvoo98nZHx+yQtlVwXesixaW3ooq62hsHFnjH/AsUV9rY7Qf/F6B9dMfWUz9fgDdi1lZhVaZAZYvD5wMJA74s65DQbQSsrda6Ftd/wWwlIHnGigvg3yY82ciCPfXcX2gh46KKXwPbPibY5xZjM03JlghkaE/pbg65TldtA44UwQ4yRlDwAOirbWUBRYt41qjtNbDO17EjeHWm5W5gXGPh9HjhzhX//rMhwOx5TudzHhXn0++vv6pnC7zxEG+6d3yu/Qod/NfGAxJCeUC9xUl0HjDqPqrG8wpogZoZwXo68bfoJsaj3lKTAvOnECHY2nCVwEEnIiMfrKMmOsZf5xdIVcxRdz+0grWV/goPc940RkZswLOjroGSilrLYG6KAxcn8F4a9pCA3TIXqH/kjjf66jyd/rnuBDDII94Olc0ee/UCTuBR+hszMGjtPYBu1t0Sc2891VbO88jFeXU8skfD4jQH3AJ6c+pbX1OBs3fiv2VLZpGB6e2Um8yRw5cjTht/PUrTtFZM75K1i73Y7dbsNun4fdbufur3+dv//7v2PJkiUzno0xOjrK4OBgUm6Mn4x7X+g3j4jInPP5fIG/A9Wyz8cXZ87w6quv8dVXX82o2h0ZGQkEcqL95Cd/m5S7xOnWnSJiCeEXkAQvJOns7OTiHy9y//334fP5SE1NnTRkfT4fw8PDDA8Ph12Qkig/+cnfcvBXv0rY/kIplEXEMuIFZ0dHBx9+2EJGRgYZGRn4fD5sNlvUdLmrV69y5coVLl++zNjYWFgYJyKUjxw5yo9/XMUHH3543fuKRz1lEbGM0AC122zY7Hbsdrvx2G4E7OpVq9iwYQP33rua5cuXs3jxYoBAUBvb2hMSyPodfSJyy4u8D4YRxvb4bQhztobP52N8fDzQjw79cyPRb7MWEUvxV7z+MB0fB5tt3AhkMG6OAdgIzGqOGcI3YiCDQllELCgsmH0+fBO2IoIzNvzPDf37RqNQFhFLCoSqzWYEc0QFHXd7btxABoWyiFicP2AnCuTQ7W50CmURuSHcLKE7GV3RJyJiIQplERELUSiLiFiIQllExEIUyiIiFqJQFhGxEIWyiIiFKJRFRCxEoSwiYiEKZRERC1Eoi4hYiEJZRMRCFMoiIhaiUBYRsRCFsoiIhSiURUQsRKEsImIhSfvNI0tvvz1ZuxYRsZSLly4lbF9JC+VEDlJE5Fah9oWIiIUolEVELEShLCJiIQplERELUSiLiFiIQllExEIUyiIiFqJQFhGxEIWyiIiFKJRFRCxEoSwiYiEKZRERC1Eoi4hYiEJZRMRCFMoiIhaiUBYRsRCFsoiIhSiURUQsRKEsImIhCmUREQv5/wFS1jHWdiLn9wAAAABJRU5ErkJggg==;" vertex="1" parent="1">
          <mxGeometry x="130" y="-97.28" width="301.64" height="336.28" as="geometry" />
        </mxCell>
        <mxCell id="EEVbNRZ3YIjHYYHEZtKa-52" value="" style="shape=image;verticalLabelPosition=bottom;labelBackgroundColor=default;verticalAlign=top;aspect=fixed;imageAspect=0;image=data:image/png,iVBORw0KGgoAAAANSUhEUgAAAVcAAAIsCAYAAABGPOqHAAAgAElEQVR4nOzdb2xb953v+TepP5SiUEwlO/LsjUbMRhrBcZogsjwJMLaxm6UeCMTus/nT0MJ0OknHhq8ACuqDtJ0hOMQkmBQVRMA1bKDzTGGK7UwxM1sQeiD2SZwLdDaScHPhIFCkTunpvQv7OlJCMoolWeLZB4ekDqlDirJ47Nj5vACh0uHh7/yo1B9+z/f8DuV6/oUXDUREpKHcD3oCIiKPIoWriIgDFK4iIg5QuIqIOEDhKiLigGa7jUeOHLnf8xAReSA+/fRTR8a1DVenDiYi8nWhtoCIiAMUriIiDlC4iog4QOEqIuIAhauIiAMUriIiDlC4iog4QOEqIuIAhauIiAMUriIiDlC4iog4QOEqIuIAhauIiAMUriIiDlC4iog4QOEqIuIAhauIiAMUriIiDlC4iog4QOEqIuIAhauIiAMUriIiDlC4iog4QOEqIuIAhauIiAMUriIiDlC4iog4QOEqIuKA5gc9ARH5+vD5fIwEApw6NUx/fz/d3V243Y2v8fL5PKura6ysrPDBB/PMpVJkMpmGH6cW1/MvvGjc1yOKyNeKy+UC4LXX/pJXv/VntLa20tLSQnNzc+kxwzDY2dnh7t27bG9vN3wO+XyexLs/46c//YeGj12NwlVEHFEMTr+/j++/8QYnTjxLW1sbzc21T5h3dnbY2NhwJGSXlj7hzbfeIp2+0fCxK6nnKiINZw3WH739Ns8//00ef/zxfYMVoKmpiY6ODjweT8UjHjo6O+mo3Ay0e3102j1QYXDwD5j68Y/x+/vqeRmHonAVkYZyuVylr++/8Qa9vU/R3t5+4HHa2tpoa2uzbNlk/a5Bc1tFwHo6aHEb7Gxv1jXu0aNH+OEPfnDg+RxU9beRwDjxoL/mk9PJSeIpgADh6VFq721xY5ZwPM1Y7AInvfvvbh6nv+79AcgtcjmSYHnfHQOEp4/z0cQl5gAwjzOwdIVIYoWR8BTBam9yN2YJm78A02CIWAhmqhx3IBRljHeI3Bol1jNLJLFiHj/WQ9LuOYX/Btn5K4V9Rb7arMH6ne/8Bc8+e/yegrXI4/GUerEA3Mmx4e7E0+yBzU3AQ4enGWMrw3p92QqYFezrr7/maA+2do1eGR4WI+EpTpR+ShGfqNzPDFxKAbzXTGSSGeuGmuG0UrG/NZT6GYuNcjNSDMjiLpVvEGmSExX72B7nCmOxC4QDk8Tjk/b7B8aJP1eY8/kurlWOu0/QcnSUWGyNmcit3f3Pd7F2w0/pjOXGLOGJSzVnK/JVUWwFuFwunvD5+NM/+WMee+yxQ4/b1tbGXXcrnW3NuHa34vNZqtpWH75W89v8Vobcnf3HDb36LX7+8390bBVB7XDtGyU+PVr14fR1++3Wai/dEyI2PQQV1ddAKMrFYfsy9OL0UMWWHAtXo8z07q2my/adniJYnFtykjhY3iDMCnU/I+EpTlyfJB6Z3HdfAJYSzMxHuRgOMDdb3NjPWGiItfcmWR4MERu9RaTyHeb2LDO3zzEWgjW6CIa6Wb4a5eboVM03JJGvsmLV+sorr+DxeGhqajr0mG63m5b8BtnMetn2dq/P3H6QkrVi3JFAgH/6xS8OPUc7Dapcd7cF+wrPm0iZ+9xKEJlIMBKeIj5dPuae013baq+fsdg5mzlVr1zt5lZ0LBQlbhPq/ukpgrlF/m3N5vXs8ztZTrzDQuwcY72FWQdGObk2SzgFDFaZCLCciBIhQDgGycglloGR6u9lIl9Z1naAy+ViaOhFWltbGzZ+S0vLbmuggU6dGn5A4Vpv5WrpDYbj9r3BucLp9UAoSnz6OMmJKBH6GYtNFfqoORaSZjj5LVVtdv4KkUjUHKT3AK+sipuJKOGEdUt5z3UkPERP6bFCxbxkeZ3P2Y26wkwkar45AKQumcFay9FRYtN+Ogs/XpwegtwiC2vgD04RD1r2rfEmJ/JVUgzXp59+mpaWloaN29LSgs/n2/uAu6I9AECerUyOOjoD9Pf3N2J6tqqHaz0Bsc++czb9yuWycKvsowKFceYS2KsI/Kptget2+6f5iADh6dOsWkOzKi8nz09x0rrpxscV++y9mFea041ZwrPYuz1LJF64YNaVJpm4xNySGe67F/Bs+sgiXzHWXmvx6xvfeKIhLQGr8t5oO15fK25jm43sOvfWGIDu7q5GTM2WTbge8Mp/qbqr72q+2QrwH/AYFKo3S4hXu5BkFcCm55oinjxOPBTi1/uuJqincrVczLNrawyGqg8fGCfYlSPr9RM8Pw66eCUPqd2ANb83DGfvTWr3tuLa3mADD23edjbruYJ1n9mEq92VfwrB8vG+p6fpGhdjRsJTnKlxjNJSJbtlR4Fx2xZF0FKt7pnLUtr+gdQsC2cvMBb6NyLVKuR62SxZK1WuuUUuVx3/JcLBbhauvk93qIdrSwMEwwGS5Fj93SHnJPIAmAFrVq6fffYZTz75ZMOq13w+X/q+3eujlS0y65vAJm6vD58XMvcQsKura/vvdI9q9FwLF5ISlsrNpgdbK0z3Y7+G9ALx4fItZrW7W7UOhKJcPPr+3jWmlZVszR5pcTVArfq5jrZAqSViVu7d71X8PqpUrp3DQ6wlJ5lZChAG0okoYfoZi52uMR+Rh8Nvf5vmmWeeaVi47uzsQNvj+DxNGNsbhWA13cllyHd04vO11r0Mq2hlxbn14zVuIhjlpHeVpLUv2fALK7un3aUlUKny781qtmxivDwIeAtBn1skuTRAcBgWrkb3tgj29FzvbX77Coxy0psmWfnrWUoQsXl+dv7K3jelwZcYYLm+44l8hX344YecPv1HNrew3pum5mY681tkMl/YPr65nmUTDx2dPnytBtsb2bpuKvjgg/mGzM+OfbgGxokHu1mYXyU4PcWJ4prROuy50l0he/vgkyyXYiaSYoZi5TtEsFDpnjw/zs3KHuwB17lazcWj9e04GCIW9JNOVrnhoMB/1AuF1985XF6hX4zBwtoQLF2p464yka+iQp/VMHjv2jW+/e0/x+v1HvojBQ3DIJvJlPq61W2ynq3/0lY+n2cu5dwqnL3hOhgiFoTkhFkFziQChKenCuHqt+l7lld39fVc61C4+aATSCdXKJ52Wy+YpZOThMtS35xrsDQP6yoGa5+3Yqwbs/W9eQyGiJ0fKi2fSicvUbphoOrrtl4gzLEwuwJLNqsrBkPEzqe5VmUpm8hXnWGYQWgAmUyWf/6Xf+Vc6FX7JVQHcOeOMxerEu/+zNHPeNVHDorIoRQrSrfbjdvtwu1uwu1209Tk5kdv/z1DQ0P3/PkCW1tbrK+vl5Z4NcrS0ie8/t2/ath4dvSpWCJyKMVlV4Zh7FavhkE+b3DpJz/hN7/593uqPjc3N0vB2ki3b3/Km2+91dAx7TT1HPu9OhuLIiL2ym8k2L2hIJvN8eF/+6/8fm8vTzzxBK2trfuGpWEY3Llzhzt37pTdmNAIS0uf8Nd/8zf35cOyFa4i0hDVAjCTyZL61a8wDOjtfaq0b+Uyrbt377KxscEXX3zB9vZ2WageNlzz+TzvJN4l+rcxPv/8/vwtLfVcRaQhrEHodrlwud243W7zZ7cZlJ2dnZw9c5YXXngev9/PkSPduN1uDMMohWnxOYcJVv2BQhF5pFR+zoAZqu7qp/eF1QVmjzZf6tdavx5W+tPaItIwxQq0GIr5PLhceTNYwfzwAcBFaVWsbZg+7MEKClcRabCygDUMjJqn+LsrDIrPtf7vw0zhKiINVwpHl8sM2IqKtur+PBrBCgpXEXFQMSj3+xjCRyVQrRSuIuK4RzE896M7tEREHKBwFRFxgMJVRMQBClcREQcoXEVEHKBwFRFxgMJVRMQBClcREQcoXEVEHKBwFRFxgMJVRMQBClcREQcoXEVEHKBwFRFxgMJVRMQBClcREQfYflj20SNH7vc8REQeiNuffurIuLbh6tTBRES+LtQWEBFxgMJVRMQBClcREQcoXEVEHKBwFRFxgMJVRMQBClcREQcoXEVEHKBwFRFxgMJVRMQBClcREQcoXEVEHKBwFRFxgMJVRMQBClcREQcoXEVEHKBwFRFxgMJVRMQBClcREQcoXEVEHKBwFRFxgMJVRMQBClcREQcoXEVEHKBwFRFxgMJVRMQBClcREQcoXEVEHND8oCcgIl8fPp+PkUCAU6eG6e/vp7u7C7e78TVePp9ndXWNlZUVPvhgnrlUikwm0/Dj1OJ6/oUXjft6RBH5WnG5XAC89tpf8uq3/ozW1lZaWlpobm4uPWYYBjs7O9y9e5ft7e2GzyGfz5N492f89Kf/0PCxq1G4iogjisHp9/fx/Tfe4MSJZ2lra6O5ufYJ887ODhsbG46E7NLSJ7z51luk0zcaPnYl9VxFpOGswfqjt9/m+ee/yeOPP75vsAI0NTXR0dGBx+OpeMRDR2cnHZWbgXavj067ByoMDv4BUz/+MX5/Xz0v41AUriLSUC6Xq/T1/TfeoLf3Kdrb2w88TltbG21tbZYtm6zfNWhuqwhYTwctboOd7c26xj169Ag//MEPDjyfg6r+NhIYJx7013xyOjlJPAUQIDw9Su29LW7MEo6nGYtd4KR3/93N4/TXvT8AuUUuJ2Ds/BCdlWP9LkQsBDORBMsU53+a1atRZpY44Gs3DYSiXBxeJTlxiTlgJDzFieuFfQZDxM4PsFzH+OnkFVbPnoNElBlCxEZvEbEeiADh6eN8VDjOHoFx4s99THi2x/LcfsZio9yM2DxnMETs/BCdN2YJlx1H5OCswfqd7/wFzz57/J6Ctcjj8ZR6sQDcybHh7sTT7IHNTcBDh6cZYyvDen3ZCpgV7Ouvv+ZoD7Z2jV7jH9xIeIoTpZ9SxCcq9zMDl4oQspqJTDJj3TBYGXpWKxX7BwjHekhGEixXC4/BkBmyhfEGQlGCe8Y1n9s1f4X40r289oL5d0gevUAwFiIdSZS/pvNDMD/Lzd5+WFqB1CXCKWtIVryWs5WDV4R/2fYaQcvxwuOzZeNwA/x9hXep3CKXJyZtft8iB1NsBbhcLp7w+fjTP/ljHnvssUOP29bWxl13K51tzbh2t+LzWaraVh++VvPb/FaG3J39xw29+i1+/vN/dGwVQe1w7RslPj1a9eH0dfvtI+EpgoWWRronRGx6COavEEmslPYxKz37MvTi9FDFlhwLV6PM9O6t+Mr2nZ4qhadZoRZ+CIwT65ktD3LADNYLDCyVzw048GtfXlpheWmyFHKlWS4liEwkOJwU8eRx4qEQv47cKm0dCZtvCuXhbPWx+bzwSywAJ8Lmm12yJ8rYbZvXLHJIxar1lVdewePx0NTUdOgx3W43LfkNspn1su3tXp+5/SAla8W4I4EA//SLXxx6jnYaVLnubgv2FZ43kTL3uWWGy0h4ivh0+ZjZisC1r1z7GYuds5lT9crVtrK08XK4SrAe6LXXaIn0TRGvLJVv/L8sdP1hqb3ht7whXJweghuLLNiNlbpE8rkpgoFCFToY4kzXIjPxFajVkEldIpwyfz8fxc3wHwhV313kXljbAS6Xi6GhF2ltbW3Y+C0tLbutgQY6dWr4AYVrvdVboYeYnb9COG5fDc2V/mFHiU8fJzkRJUI/Y7GpQtDkWEiakeq3VLXZ+StEIlFzkN4DvLI6/Do+aVPNUgik6s8rvpbCzuUtkcA48bNrLKwNMdCVo9O724fd9X8zU/ZGUvlGMVDjuAHCQcyKOLLfKzxeHvzTUwRJszAPncMXiA9bdrW0T0TuVTFcn376aVpaWho2bktLCz6fb+8D7or2AAB5tjI56ugM0N/f34jp2aoervsETD37loeQaTkRJVw6S67sowKFceaqnUlXBH7VtkCVlgU9IWJB8yLXnvbD55/DE09UeaK94oWtsqo9kmIkPMTAUqEPW5yXpRoeGR2CpStVesuFN5PB4ra9F/NKFW9ukcuWVkG5j4lPXCpdbFu4OsvM0goDoSgDhbOGkXCUY7OVvVyR+ll7rcWvb3zjiYa0BKzKe6PteH2tuI1tNrLr3FtjALq7uxoxNVs24XrAK//FfuhSfVfzzVaA/4DHoBBMlhAfDBE738W1qhdzsISTxa0EkasUqsZbBG17lRVX+2sZNHvKnYVWiNXarRXmEsU3GPP3E4/1cPm9LoLMEq7S8xyoqNzL34TsLmIFas5vbBiyOT8nz5+Dq1F+vc9LEjmo3YA1vzcMZ+9Nave24treYAMPbd52Nuu5gnWf2YSr3ZV/dpf47JM2lUuUrEbCU5ypcYyBUJQx3rHvgQbGbVsUQUu1umcu/7YIgL+nm7VbK9BTuUeKj9aivDwIyxVX4U/05Vidrdy/BrsWil3PNYdNpZ8inggRi4XMNkFZdc/ucinLpt1ebZrkxMdVJtXDWGiIteQVVs+OcjMJwVCIm0tm8Is0khmwZuX62Wef8eSTTzases3n86Xv270+Wtkis74JbOL2+vB5IXMPAbu6utaQ+dmp0XMtXEhKWE4ZbQKkVpjux7qqYFdFL5BitbsbSAOhKBePvl8e9DUq2ZHwFP7hKC9fjZrLrSwV7dzsMrFQiIE91auXk+enOFll7qWLcXarAQLjxM92k/WuVq2s7V/73laFeZzdY4yEpziz50p/wP4CXt+QefqfwlzeVQj1kfAUVOskiDTAb3+b5plnnmlYuO7s7EDb4/g8TRjbG4VgNd3JZch3dOLztda9DKtoZcW5IqPGTQSjnPSukqxz7ee9KbYUyk/Drd+b1WzZxHh5EPAWgj63SHJpgOAwLFyN2i6SP9O1yOWrMHY+ytjVaHmPdynBzFKUi7GQ5YJOleq9wFwFUeU/ymCIWLB7d+nY9DjYBOyefnTNNb6W19KXY3m28tgp4nYXt27MFkLY2rQPcKIvzUfxqi9P5NA+/PBDTp/+I5tbWO9NU3MznfktMpkvbB/fXM+yiYeOTh++VoPtjWxdNxV88MF8Q+Znxz5cA+PEg90szK8SnJ7iRHKSev8t+oM2p8IW2dsHn2S5FDORFDMUq78hgoVK9+T5cW6WBVk/Y6EBlhNRlpcgkhw314oWCs2Xw1OF9Z5RLocqA7aafo515Vj9XcXm0ql7muREIeSXLhH+XYhY4Sr93lUDBxEgfN5cL1zr4tNAT/fuD5VnGtPjHJvvxn/j/br/e4rUr9BnNQzeu3aNb3/7z/F6vYf+SEHDMMhmMqW+bnWbrGfrv7SVz+eZSzl3V+LecB0MEQtSCoiZRIDw9FThH6Pfpu+5W31CvT3XOhRuPugE0kmz+qq8YJZOThIuSwlzrsHCYx89V1jHWgyjwmnxQChKp9dL93uTRApzXU5ECdvNw+5W1RuzhItjloXq3tURpbbBYDFkb/L/5Y7xv1S58Lf3BgqzNXDtqHnDgP3C//LfTTqZgiVsbl4w79BauKrbXKXxDMMMQgPIZLL887/8K+dCr9ovoTqAO3ecuViVePdnjn7Gqz5yUEQOpVhRut1u3G4XbncTbrebpiY3P3r77xkaGrrnzxfY2tpifX29tMSrUZaWPuH17/5Vw8azo0/FEpFDKS67Mgxjt3o1DPJ5g0s/+Qm/+c2/31P1ubm5WQrWRrp9+1PefOutho5pp6nn2O9FHT+KiDzSym8k2L2hIJvN8eF/+6/8fm8vTzzxBK2trfuGpWEY3Llzhzt37pTdmNAIS0uf8Nd/8zf35cOyFa4i0hDVAjCTyZL61a8wDOjtfaq0b+Uyrbt377KxscEXX3zB9vZ2WageNlzz+TzvJN4l+rcxPv/8/vwtLfVcRaQhrEHodrlwud243W7zZ7cZlJ2dnZw9c5YXXngev9/PkSPduN1uDMMohWnxOYcJVv2BQhF5pFR+zoAZqu7qp/eF1QVmjzZf6tdavx5W+tPaItIwxQq0GIr5PLhceTNYwfzwAcBFaVWsbZg+bMHa2dnJmdN/xLFjPdy8eYtr7/8XVa4i0nguS4hS8xR/d4UB7P3fh8X/9X8G+U//6T+Vfv4f/+N/qHIVkcYrhaPLZZ76V1S0Vffn4QtWoCxYiz8rXEXEMcWg3O9jCB/GQN2PwlVEHPcohud+dIeWiIgDFK4iIg5QuIqIOEDhKiLiAIWriIgDFK4iIg5QuIqIOEDhKiLiAIWriIgDFK4iIg5QuIqIOEDhKiLiAIWriIgDFK4iIg5QuIqIOEDhKiLiANsPyz565Mj9noeIyANx+9NPHRnXNlydOpiIyNeF2gIiIg5QuIqIOEDhKiLiAIWriIgDFK4iIg5QuIqIOEDhKiLiAIWriIgDFK4iIg5QuIqIOEDhKiLiAIWriIgDFK4iIg5QuIqIOEDhKiLiAIWriIgDFK4iIg5QuIqIOEDhKiLiAIWriIgDFK4iIg5QuIqIOEDhKiLiAIWriIgDFK4iIg5QuIqIOEDhKiLiAIWriIgDmh/0BETk68Pn8zESCHDq1DD9/f10d3fhdje+xsvn86yurrGyssIHH8wzl0qRyWQafpxaXM+/8KJxX48oIl8rLpcLgNde+0te/daf0draSktLC83NzaXHDMNgZ2eHu3fvsr293fA55PN5Eu/+jJ/+9B8aPjbAhfPf3bNNlauIOKIYnH5/H99/4w1OnHiWtrY2mpvtY6epqYnW1lZ2dnbY2NhoaMi63W7GzoX4w1OnePOtt0inbzRs7KrHdPwIIvK1Yw3WH739Ns8//00ef/zxqsFq1dTUREdHBx6Pp+IRDx2dnXRUbgbavT467R6oMDj4B0z9+Mf4/X31vIxDUbiKSEO5XK7S1/ffeIPe3qdob28/8DhtbW20tbVZtmyyftegua0iYD0dtLgNdrY36xr36NEj/PAHPzjwfA6q+ttIYJx40F/zyenkJPEUQIDw9Ci197a4MUs4nmYsdoGT3v13N4/TX/f+AOQWuRy5RbDueeVYuBplZqlic2Cc+Nk1LkcSLO83xGCIWAhmquw7EIoyxjtEbo0S65klklgBAoRjPSTtnlP4b5Cdv1LYV+SrzRqs3/nOX/Dss8fvKViLPB5PqRcLwJ0cG+5OPM0e2NwEPHR4mjG2MqzXl62AWcG+/vprjvVgYb+e641ZwmZ67jESnuJE6acU8YnK/czApRTAe81EJpmxbqgZTisV+1tDqZ+x2Cg3I5eYq3iW/byO89HE3n33GAwRC/pJJy9VD9bBELHzXVyrHG+foOXoKLHYGjORW2XjrN3wUzpjuTFLeOLSfrMU+UootgJcLhdP+Hz86Z/8MY899tihx21ra+Ouu5XOtmZcu1vx+SxVbasPX6v5bX4rQ+7O/uOGXv0WP//5Pzq2iqB2uPaNEp8erfpw+rr99pHwFMFCQKR7QsSmh6Ci+hoIRbk4bF+GXpweqthSqCp791bTZftOTxEszq0Y6oFx4kFIVg3Tam8CAcLnzXnvbu9nLHYOEpYKdynBzHyUi+EAc7OW/UJDrL03yfJgiNjoLSKV7zC3Z5m5fY6xEKzRRTDUzfLVKDdHp2q+IYl8lRWr1ldeeQWPx0NTU9Ohx3S73bTkN8hm1su2t3t95vaDlKwV444EAvzTL35x6DnaaVDlurst2Fd43kTK3OdWgshEgpHwFPHp8jH3nO7aVnuFQNszp+qVa9ncUpe43BPl4vQ47AlYM1i75q8QqQzW4vay0/EVZiLvE54eZ8Qy1nLiHRZi5xjrLcw6MMrJtVnCKWDQ/ldrPi9KhADhGCQjZnU8Uv29TOQry9oOcLlcDA29SGtra8PGb2lp2W0NNNCpU8MPKFzrrVwtvcFw3L43OBefZA6zYo1PHyc5ESVCP2OxqUIfNcdC0gwnv6Wqzc5fIRKJmoP0HuCVWSwnolymUF3Gi1vNQN4boHbBurff6y8L6xVmIlHzzQEgdckM1lqOjhKb9tNZ+PHi9BDkFllYA39winjQsm+NNzmRr5JiuD799NO0tLQ0bNyWlhZ8Pt/eB9wV7QEA8mxlctTRGaC/v78R07P1cN1EUMdFtqJ01VPrWj3XahfNbC52larsGhfNbswSnu0ptQXsLmiNhKcIdqVJJi4xt1Souq8XL+DZ95FFvkqKvVa32136+n/+9Z85duxYQ49T3httx+trxW1ss5Fd594aA+bNBf/b//5/HHpudd5EcMAr/6Xgqe9qvtkK8B/wGBSqN0tFWO1CkoW191vJb+nPlh2j8iJbNUsJrq1NEQxM7l40s2trDIaqjxEYJ9iVI+v1EzxvVsIiD6Pdi1nm94bhbM3W7m3Ftb3BBh7avO1s1nMF6z6zCVe7K/+YVeNzH+97elq9YjTD7kyNY5QqO7tlR4Fx2xZF0C4kLXMJxyu37r9aoNbFtqLs/BUi8UnmAuPEp6tcZMstcjlRbYSXCAe7Wbj6Pt2hHq4tDRAMB0iSY/V3NQ8t8pVkBqzZFvjss8948sknG3JBC8wKs6jd66OVLTLrm8Ambq8Pnxcy9xCwq6trDZmfnRo9V5sr4zY92Fphuh/7yvIC8eHyLWa1u1u1DoSiXDz6fnnQ11HJHkSttaXmm0BBqb9qVu7d71X8PqpUrp3DQ6wlJ5lZChAG0okoYfoZi51uwOxFHqzf/jbNM88807Bw3dnZgbbH8XmaMLY3CsFqupPLkO/oxOdrrXsZVtHKinPrx2vcRDDKSe8qSWufseEXVnZ7mbu9xvLvy4LMnBgvDwLeQtDnFkkuDRAchoWr0QfXnwyMctKbJln561lKEKm8MQEzvPf8KgdfYoDlvTcyiDxkPvzwQ06f/iObW1jvTVNzM535LTKZL2wf31zPsomHjk4fvlaD7Y1sXTcVfPDBfEPmZ8c+XAPjxIPdLMyvEpye4kRykj1n11XsudJdIXv74JMsl2ImkmKGYuU7RLBQ6Z48P87NBlWuncN7K2irrPW/Selmg8max/Yf9cJt+/EvxmBhbQiWrux/J5jIV1Khz2oYvHftGt/+9p/j9XoP/ZGChmGQzWRKfd3qNlnP1n9pK5/PM5dybhXO3nAdDBELQnLCrAJnEr+3G7UAACAASURBVAHC01OFcPXb9D3Lr6TX13OtQ+Hmg04gnVzB7kr+3p6qOdfgPvOoR91tgeINAzVXJxQv3uVYmF2BJZulWoMhYufTXKuylE3kq84wzCA0gEwmyz//y79yLvSq/RKqA7hzx5mLVYl3f+boZ7w+XEuxROQrp3wplgu3uwm3201Tk5sfvf33DA0N3fPnC2xtbbG+vl5aP9soS0uf8Pp3/6ph49ktxdKnYonIoRSXXRmGsVu9Ggb5vMGln/yE3/zm3++p+tzc3CwFayPdvv0pb771VkPHtKNwFZGGKIaqYeRL3//Hf/x3/u7Nv2NxcZFsNlvX+lfDMPjyyy9ZX9/9LIFGBezS0idMfu979+XDspt6jv1e1PGjiMgjr1oAZjJZUr/6FYYBvb1PlfatXKZ19+5dNjY2+OKLL9je3i5rBRw2XPP5PO8k3iX6tzE+/7zxfdZTwyf3bNOfeRGRhim1CPJ5isv+izcXJBIJfvnLX3L2zFleeOF5/H4/R45043a7MQyjFKZut/vQwao/UCgijxRrIJpB6cLlcpd9YlaZwuoCs0ebt7QWdr8eBvoDhSLiqGIFWgzFfB5crrwZrGB++ADgorQq1jZMH6ZgrUbhKiINVRawhoFR8xR/d4VB8bnW/32YKVxFpOFK4ehymQFbUdFW3Z9HI1hB4SoiDioG5X4fQ/ioBKqVwlVEHPcohud+dBOBiIgDFK4iIg5QuIqIOEDhKiLiAIWriIgDFK4iIg5QuIqIOEDhKiLiAIWriIgDFK4iIg5QuIqIOEDhKiLiAIWriIgDFK4iIg5QuIqIOEDhKiLiANsPyz565Mj9noeIyANx+9NPHRnXNlydOpiIyNeF2gIiIg5QuIqIOEDhKiLiAIWriIgDFK4iIg5QuIqIOEDhKiLiAIWriIgDFK4iIg5QuIqIOEDhKiLiAIWriIgDFK4iIg5QuIqIOEDhKiLiAIWriIgDFK4iIg5QuIqIOEDhKiLiAIWriIgDFK4iIg5QuIqIOEDhKiLiAIWriIgDFK4iIg5QuIqIOEDhKiLiAIWriIgDmh/0BETk68Pn8zESCHDq1DD9/f10d3fhdje+xsvn86yurrGyssIHH8wzl0qRyWQafpxaXM+/8KJxX48oIl8rLpcLgNde+0te/daf0draSktLC83NzaXHDMNgZ2eHu3fvsr293fA55PN5Eu/+jJ/+9B8aPjbAhfPf3bNNlauIOKIYnH5/H99/4w1OnHiWtrY2mpvtY6epqYnW1lZ2dnbY2NhoaMi63W7GzoX4w1OnePOtt0inbzRs7KrHdPwIIvK1Yw3WH739Ns8//00ef/zxqsFq1dTUREdHBx6Pp+IRDx2dnXRUbgbavT467R6oMDj4B0z9+Mf4/X31vIxDUbiKSEO5XK7S1/ffeIPe3qdob28/8DhtbW20tbVZtmyyftegua0iYD0dtLgNdrY36xr36NEj/PAHPzjwfA6q+ttIYJx40F/zyenkJPEUQIDw9Ci197a4MUs4nmYsdoGT3v13N4/TX/f+AOQWuRxJ4A9PEWSWsDlRi37GYqPcjFxibp+hBkJRxniHSGKlxl79jMXOQSLKzFL9zx0JT3HievH3WClAePo4H01cgnCUY7OFsQPjxHpmbcccCU8R7MuxcLV8HiL3gzVYv/Odv+DZZ4/fU7AWeTyeUi8WgDs5NtydeJo9sLkJeOjwNGNsZVivL1sBs4J9/fXXHOvBwn491xt2oWQaCU9xovRTivhE5X5m4JKsFhwwE5lkxrphMEQsBDORBMt79l6p2D9AONZDMpJguUZQLsevcCx2gVgoTSSBbQCWj3WPBl9igOW6Am0kPMWZ21f2hGPtoIXu0Six4XeI3DJ/HghFuXh0lXSfv/TGlk5OEo7f64sQuXfFVoDL5eIJn48//ZM/5rHHHjv0uG1tbdx1t9LZ1oxrdys+n6WqbfXhazW/zW9lyN3Zf9zQq9/i5z//R8dWEdQO175R4tOjVR9OX7ffblZPhX16QsSmh2C+PEwGQlEuDtuXoRenhyq2FCqx3r3VdNm+01MEi3NLTvLRc7vzYPgC8aOLLODl5PkpTlY+J7do/jwYInZ+iM49s7pAfNhmToUwHRkdotNrnY/5+K9tXt9cfJYT0+cYm49ys7gxME6wa5HLKRixVqkWq7PvsBo6xxircHSUsa5lLkduEZyG5MT+FbiI04pV6yuvvILH46GpqenQY7rdblryG2Qz62Xb270+c/tBStaKcUcCAf7pF7849BztNKhy3d0W7Cs8byJl7nMrQWQiwUh4ivh0+ZjZisC1r1wLp9t75lS9ci3ObS4+aRM4ifJq2U6hpVCcw95T+4o5EeBEX9oScAHC06drHCBFPHmc+GiAZHG8s90sJC6xDDXaKyvMRKJmW4BZIvEVILDfqxFxnLUd4HK5GBp6kdbW1oaN39LSstsaaKBTp4YfULjWW7kW+rPZ+SuE4/a9xWLQDYSixKePk5yIEqGfsdhUoY+aYyFpxpnfUtVm568QiUTNQXoP8MooD8WRcJRjt1c5OVyjM5xb5HJi72b/US9r16v3WwdCp+maf2c3yAd76GKVj5aAYegcvkD8aMUbVeoS4RSMhEcpheY+ukejxM8Xq32zks7OL7KGn6ClagdrP1zk/imG69NPP01LS0vDxm1pacHn8+19wF3RHgAgz1YmRx2dAfr7+xsxPVvVw7Xwj78uVfa1qxyXE1HCpQCr7KMChXHmbEIO2BP4VdsC12H51iqdz5lheqxrlZvxS7vHrtbfHQxVHDDAiT7wd4UYSNn0ZAdDjA2vcu3qS8TCfiLxFPR20XnjY/PNBPMNYoZzxKdPm62C4YqWSN8UcbM3wcJVS6ugwupslPiS2cvuujHLTDzFMgHCw4WqeTBEbPSWOQeR+8Taay1+feMbTzSkJWBV3httx+trxW1ss5Fd594aA9Dd3dWIqdmyCdcDXvkv9R7ru5pvtgL8BzwGhXaAJcQHQ8TOd3GtVq9xcI3scwB+ur1w06afWtkjrWwZjIRH6Zq/wmXOcXF6fE9vc2B4gLVklLklYHSKeBiS+Elfv1Q2znIiSng+ROz8ODcndt9g7C5ijVQ/WTDnk8vR2TfKxTC6eCVfCbsBa35vGM7e+NnubcW1vcEGHtq87WzWcwXrPrMJV7sr/5in/s99XLUHW1TrdHQkPMWZGseouWwpMG7boqg8HS6fyyxrXT0McAtya6SBM7lF8yJQrIdk5N94udCrJRzlWNmzC28Wa7OEEytAlPCtceLT4zAxW9prORGlmG9z8UkIT5UuTO2xlCAyYbZC4tY3oVLlWrgQV+X1MFy46PVeF2M977M8OEo4MFt6bSIPkhmwZuX62Wef8eSTTzases3n86Xv270+Wtkis74JbOL2+vB5IXMPAbu6utaQ+dmp0XO1Wbdp04M9TG/PuqpgV+VV+WK1u1u1mkuQ3i8PettKtp+xs8fxD0LX2i2W6alvYt4hLk4PmT1ka9CnLhFmnHj4JRZsn9jPsS5Iv1drSZelFRIYJ352reziGcDIc7aT4uTwKsmJBMuBcSDNTGTSfN31vSqR++a3v03zzDPPNCxcd3Z2oO1xfJ4mjO2NQrCa7uQy5Ds68fla616GVbSyUmvt+uHUuIlglJPeVZLW5UA1Vg/cm93lTNbTY+v3ZjVbNjFeHgS8haDPLZJcGiA4DAtXoxUtghVurnVzbBi4/W9Qb7hWrBYok7pEONXPWGxgz0Mj4QsMLF0hUtevqJ+xs36yS7N7jjMXt7u4lWPh6t4WyMDwACy9c+/rc0Uc8OGHH3L69B/Z3MJ6b5qam+nMb5HJfGH7+OZ6lk08dHT68LUabG9k67qp4IMP5hsyPzv24RoYJx7sZmF+leD0FCeSk9Tb2vMHd09x7WRvH3yS5VLMRFLMUKx8hwgWKt2T58e5WdETnYtHGQhFOTl8gdjRNODEaUDhIlPl0rIaRsIXOMkil2vtP9jDbru9Yn0uF4ixyNowLF917t1XpH6FPqth8N61a3z723+O1+s99EcKGoZBNpMp9XWr22Q9W/+lrXw+z1zKuYu/e8N1MEQsCMkJswqcSQQIT08VwtVv0/csX0xfX8+1DoWbDzqBdHKFUg/U0qvcezeSOdcge28iSCcnif/OXCEAKeIRc/ty5GPC01P4yVU51d9VduNDbpHLS8Vjmnei1VexsnvDQJXquOw4N2bNNwublRcDoSgXb7xPXLe5yleAYZhBaACZTJZ//pd/5VzoVfslVAdw544zF6sS7/7M0c941ee5isihFCtKt9uN2+3C7W7C7XbT1OTmR2//PUNDQ/f8+QJbW1usr6+Xlng1ytLSJ7z+3b9q2Hh2n+eqT8USkUMpLrsyDGO3ejUM8nmDSz/5Cb/5zb/fU/W5ublZCtZGun37U958662GjmlH4SoiDVEMVcPIl77/j//47/zdm3/H4uIi2Wy2rvWvhmHw5Zdfsr6++1kCjQrYpaVPmPze9+7Lh2U39Rz7vf3vuxQR2Ue1AMxksqR+9SsMA3p7nyrtW7lM6+7du2xsbPDFF1+wvb1d1go4bLjm83neSbxL9G9jfP554/usp4ZP7tmmP/MiIg1TahHk8xSX/RdvLkgkEvzyl7/k7JmzvPDC8/j9fo4c6cbtdmMYRilM3W73oYNVf6BQRB4plZ8z4Ha7cLncZZ87UKawusDs0eYtrYXdr4eB/kChiDiqWIEWQzGfB5crbwYrmB8+ALgorYq1DdOHKVirUbiKSEOVBaxhYNQ8xd9dYVB8rvV/H2YKVxFpuFI4ulxmwFZUtFX359EIVlC4ioiDikG538cQPiqBaqVwFRHHPYrhuR/dRCAi4gCFq4iIAxSuIiIOULiKiDhA4Soi4gCFq4iIAxSuIiIOULiKiDhA4Soi4gCFq4iIAxSuIiIOULiKiDhA4Soi4gCFq4iIAxSuIiIOULiKiDjA9sOyjx45cr/nISLyQNz+9FNHxrUNV6cOJiLydaG2gIiIAxSuIiIOULiKiDhA4Soi4gCFq4iIAxSuIiIOULiKiDhA4Soi4gCFq4iIAxSuIiIOULiKiDhA4Soi4gCFq4iIAxSuIiIOULiKiDhA4Soi4gCFq4iIAxSuIiIOULiKiDhA4Soi4gCFq4iIAxSuIiIOULiKiDhA4Soi4gCFq4iIAxSuIiIOULiKiDhA4Soi4oDmBz0BEfn68Pl8jAQCnDo1TH9/P93dXbjdja/x8vk8q6trrKys8MEH88ylUmQymYYfpxbX8y+8aNzXI4rI14rL5QLgtdf+kle/9We0trbS0tJCc3Nz6THDMNjZ2eHu3btsb283fA75fJ7Euz/jpz/9h4aPDXDh/Hf3bFPlKiKOKAan39/H9994gxMnnqWtrY3mZvvYaWpqorW1lZ2dHTY2Nhoasm63m7FzIf7w1CnefOst0ukbDRu76jEdP4KIfO1Yg/VHb7/N889/k8cff7xqsFo1NTXR0dGBx+OpeMRDR2cnHZWbgXavj067ByoMDv4BUz/+MX5/Xz0v41AUriLSUC6Xq/T1/TfeoLf3Kdrb2w88TltbG21tbZYtm6zfNWhuqwhYTwctboOd7c26xj169Ag//MEPDjyfg6r+NhIYJx7013xyOjlJPAUQIDw9Su29LW7MEo6nGYtd4KR3/93N4/TXvT8AuUUuv9fFxbNrXI4kWMZ8fvd7xTnDQCjKGO8QSazsP15gnPhzHxO+fpx4EJITl5irsftIeIoT13ePVXPMsp0ChKeP81HV8fd5vDjmbA+x0VtE4imgn7HYKDcjNs8ZDBE7P0TnjdmKeYgcnDVYv/Odv+DZZ4/fU7AWeTyeUi8WgDs5NtydeJo9sLkJeOjwNGNsZVivL1sBs4J9/fXXHOvBwn491xr/4EbCU5wo/ZQiPlG5nxm4JKsHzExkkhnrhsEQsRDMRBIs79l7pWL/AOFYD8lScNqHR5hx4rEQlyMJZhKLxM6PM5Iy9/Mf9bJ23RqsNm8Sxd/B79bInu1hIHWJcCpAeDrKsatRZpbsX1s9Rp7zk75+qY49A4SnT7O653j7BfHxwuOzZeNwA/x9hXep3CKXJyZtft8iB1NsBbhcLp7w+fjTP/ljHnvssUOP29bWxl13K51tzbh2t+LzWaraVh++VvPb/FaG3J39xw29+i1+/vN/dGwVQe1w7RslPj1a9eH0dfvtI+EpgoWWRronRGx6COavlFWIA6EoF4fty9CL00MVW3IsXI0y07u3mi7bd3qKYHFuxVBPXSL8uxCx6Sk6C48Fp6c4Mb9IVx909k0RLz7pxizhicnd8QLjxJ+zm2HFm0m1Kt86tjmr3Yp3MMQZu+PHqxwveZx4KMSvI7dKW0fCo3TNX2Gu7I3G6mPzeeGXWABOhM03u2RPlLHbV+qr2EUOoFi1vvLKK3g8Hpqamg49ptvtpiW/QTazXra93esztx+kZK0YdyQQ4J9+8YtDz9FOgyrX3W3BvsLzJlLmPrcSRCYSjISniE+Xj5mtCFz7yrWfsdg5mzlVr1zNuZltgIGlK0QSCSJXKRt7JDzFmfkrhBOVlWu0VCEO9HSTvd1DeHqqVM2WB78lLCt+V3vbAmaVWTQwPACW4w+Eolw8avurNqUukXxuimBgtvS7OtO1yEx8BWo1ZFKXCKfM389H8UnmgIFQjeOI3ANrO8DlcjE09CKtra0NG7+lpWW3NdBAp04NP6BwrbdyLVRu2fkrhOP21dBc6R92lPj0cZITUSL0MxabKvRRcywkzUj1W6ra7PwVIpGoOUjvAV5ZoY0wEp4iFrpCZN76WIATXWnWui6YgV98PclJs9IbDTCzlCq0DRLEJxJQtTq008+xrhyrv6v2eIDg8CrXJnZ/V/6jXrK305hB6Sdo03Ywf4cBwkFgKUEkst88jpe3OaanCJJmYR46hy8QH7bsmlss9KZF7l0xXJ9++mlaWloaNm5LSws+n2/vA+6K9gAAebYyOeroDNDf39+I6dmqHq6pS4Trvb5RZd9ioFotJ6KEE8WfKvuoQGGcuQT2KgK/alvgesUcBl8C71Bh/0KboRBcA6EoFweXSaYAZlk4e4FwAOhL85H1NN3bhR92K99qp9aDLzHg9dJZCOlKxdN5wlHGZqPMLJlhvDxbrELTJCc+5sT0FPEqF//8xdeaW+SypVVQ7mPiE5cKLZhVFq7OMrO0wkAoykDhrGEkHOXY7OF6x/L1Zu21Fr++8Y0nGtISsCrvjbbj9bXiNrbZyK5zb40B6O7uasTUbNmE6wGv/JeCqr6r+WYrwH/AY1A47baE+GCI2Pkuru1z1d483X6f8CyWVQqj3CyGSWDcfDxSHHilcOFrlM4bs+xma5rV3GmODQK94wS7FrlsW6X3MxYaYi05ybXnpojHeioqwgAnCqfzy4PLxM5HGUsuM8ByRcCZfd1S5V16E7K7iBWo/gsYDDE2DNmcn5Pnz8HVKL+u8fsSuRe7AWt+bxjO3vjZ7m3Ftb3BBh7avO1s1nMF6z6zCVe7K/9UWTa0V7rG6oCR8BRnahyj5tKowLhtiyJoqVbt5vLRUS/p6ynoHaeT3QrvhOWiG/jNsYunxksJrt0Y4szttGW0FW6ueTkxHCI23M3C1Us2p9DmG1PX/BUiKSA1SToU5WIsZKkuU8SLp/NLCSJXzaVQa0n7K/Zz8UnmBkPEpi+ULsiBpXItVLn2egpBf4XVs6PcTEIwFOLmEqzd0sUsaSwzYM3K9bPPPuPJJ59sWPWaz+dL37d7fbSyRWZ9E9jE7fXh80LmHgJ2dXWtIfOzU6PnWriQlLCcMtr0YGuF6X5GygKuqKIXSLHa3a1aS9Wo9cC2lWw/Y2fN3ufAcHehp2n6KD5pVqV2bxqBcYJdObJ95xib33396ds5gsNDpJOTzCxZLlpB4Xdj/j4ilqGWE1Euh6KMhcD2P2NvF525RWZq/Q6XzIuCxd/Z3nZEYM/FRQD6hszT/xSMnaXUvhkJT0G1ToJIA/z2t2meeeaZhoXrzs4OtD2Oz9OEsb1RCFbTnVyGfEcnPl9r3cuwilZWnCsyatxEMMpJ7ypJ66lqwxea7/Y+rVfXrd+b1WzZxHh5EPCOlqrN5NIAwWFYuBqtaBH46fau8tES+EeLa1oDdHvhZtU59TN21k/6PXPJ0sVS3zRAcNgLpPkoZe5XumjVW/t3s5yIEiFAeLiivzMYIhaE5ESdF5IGQ5zpK/ZmrSzVsNWN2UIIW5v2AU5U9pJFGuzDDz/k9Ok/srmF9d40NTfTmd8ik/nC9vHN9SybeOjo9OFrNdjeyNZ1U8EHH8zvv9M9sg/XwDjxYDcL86vmmtDkJPX+W/QHK9d2lsvePvgky6WYiaSYoVj5DhEsVLonz49z01q5Bo7jz62RHAwx1mWpDnNrpPcODMBI+AIn12YLVfI7LMTOMRY6zslhP+nkJJd7olwMB5iLUwrug61iMBUvMu13p9euAOHz5nrhWhefBnq6d3+oPNOYHufYfDf+G+/X/d9TpH6FPqth8N61a3z723+O1+s99EcKGoZBNpMp9XWr22Q9W/+lrXw+z1zKubsS94ZrqZoyq8CZRIDw9FThH6Pfpu9ZfuW9vp5rHQo3H3QC6aRZfVVeMEsnJysW3ZtzDRYeS/Z0w9rH+EdHWXtvEn94iouFdbjLxds+gex8+drRy2UXt5aJne8iOVFc+RAlaVmzu19IlbU+CvsXVydcrrdiZXeFgf3C//LfTTqZgiVKrYTy389pFq7qNldpPMMwg9AAMpks//wv/8q50Kv2S6gO4M4dZy5WJd79maOf8arPcxWRQylWlG63G7fbhdvdhNvtpqnJzY/e/nuGhobu+fMFtra2WF9fLy3xapSlpU94/bt/1bDx7D7PVZ+KJSKHUlx2ZRjGbvVqGOTzBpd+8hN+85t/v6fqc3NzsxSsjXT79qe8+dZbDR3TjsJVRBqiGKqGkS99/x//8d/5uzf/jsXFRbLZbF3rXw3D4Msvv2R9ffezBBoVsEtLnzD5ve/dlw/Lbuo59ntRx48iIo+8agGYyWRJ/epXGAb09j5V2rdymdbdu3fZ2Njgiy++YHt7u6wVcNhwzefzvJN4l+jfxvj888b3WU8Nn9yzTX/mRUQaptQiyOcpLvsv3lyQSCT45S9/ydkzZ3nhhefx+/0cOdKN2+3GMIxSmLrd7kMHq/5AoYg8Uio/Z8DtduFyucs+d6BMYXWB2aPNW1oLu18PA/2BQhFxVLECLYZiPg8uV94MVjA/fABwUVoVaxumD1OwVqNwFZGGKgtYw8CoeYq/u8Kg+Fzr/z7MFK4i0nClcHS5zICtqGir7s+jEaygcBURBxWDcr+PIXxUAtVK4SoijnsUw3M/uolARMQBClcREQcoXEVEHKBwFRFxgMJVRMQBClcREQcoXEVEHKBwFRFxgMJVRMQBClcREQcoXEVEHKBwFRFxgMJVRMQBClcREQcoXEVEHKBwFRFxgO2HZR89cuR+z0NE5IG4/emnjoxrG65OHUxE5OtCbQEREQcoXEVEHKBwFRFxgMJVRMQBClcREQcoXEVEHKBwFRFxgMJVRMQBClcREQcoXEVEHKBwFRFxgMJVRMQBClcREQcoXEVEHKBwFRFxgMJVRMQBClcREQcoXEVEHKBwFRFxgMJVRMQBClcREQcoXEVEDul//s//uednhauIyCFde/+/8OnqKgCfrq5y7f3/guv5F140HvC8REQeCa2trWxtbQFqC4iINEwxWEHhKiLiCIWriIgDFK4iIg5oftATEJGvD5/Px0ggwKlTw/T399Pd3YXb3fgaL5/Ps7q6xsrKCh98MM9cKkUmk2n4cWrRagERcZTL5QLgtdf+kle/9We0trbS0tJCc3Nz6THDMNjZ2eHu3btsb283fA75fJ7Euz/jpz/9h4aPXY3CVUQcUQxOv7+P77/xBidOPEtbWxvNzbVPmHd2dtjY2HAkZJeWPuHNt94inb7R8LErqecqIg1nDdYfvf02zz//TR5//PF9gxWgqamJjo4OPB5PxSMeOjo76ajcDLR7fXTaPVBhcPAPmPrxj/H7++p5GYeicBWRhnK5XKWv77/xBr29T9He3n7gcdra2mhra7Ns2WT9rkFzW0XAejpocRvsbG/WNe7Ro0f44Q9+cOD5HFT1t5HAOPGgv+aT08lJ4imAAOHpUWrvbXFjlnA8zVjsAie9++9uHqe/7v0ByC1yOZJgud45PeJGwlOcuF7871UpQHj6OB9NzHIsNsrNyCXmgIFQlOCtqM1ziv8t0iQnzH1FoDxYv/Odv+DZZ4/fU7AWeTyeUi8WgDs5NtydeJo9sLkJeOjwNGNsZVivL1sBs4J9/fXXHO3B1q7Rb8wStv/XaP5jLf2UIj5RuZ8ZuCSr/YOGmcgkM9YNgyFiIZixDcWViv0DhGM9JCMJlulnzBIKu8wQGFi6QiSxsmf+Z27v3d4YhTebGr+/+6Haa6wdtHCi8HjSOg5p6PPTCUCOhauThJccnLw8dIqtAJfLxRM+H3/6J3/MY489duhx29rauOtupbOtGdfuVnw+S1Xb6sPXan6b38qQu7P/uKFXv8XPf/6Pjq0iqB2ufaPEp0erPpy+br99JDxFsNDSSPeEiE0PwXz5P/KBUJSLw/Zl6MXpoYotORauRpnp3VtNl+07PUWwOLcaoe64wHH8uRzZvuOMkLpvld1AKMrFweVSxT4Xn+XE9DnG5qPcLM1tnGDXIpdTMBKOcmw2ykxFSH4Un+XE9DgvzwPPjRNklvBsD7HQms4GpKZi1frKK6/g8Xhoamo69Jhut5uW/AbZzHrZ9navz9x+kJK1YtyRQIB/+sUvDj1HOw2qXHe3BfsKz5tImfvcShCZSDASniI+XT5mtiJw7SvXfsZi52zmVL1ytZvb/TTynJ/0e1dYPXuBM6F+5hypjuuRIp48Tnw0UKhC+xk7281C4hLLUKONY56JHzseWgAAFc1JREFUDISiBK9fIpwCBkP3Z8ryULK2A1wuF0NDL9La2tqw8VtaWnZbAw106tTwAwrXeivXQn82O3+FcNw+SObik6U+Xnz6OMmJKBH6GYtNFfqoORaSZqT6LVVtdv4KkUjUHKT3AK/sQKz93EKVXKjmyitsS48xME787BrJpQGCw97dN4rBEGf60lyLr5DuyXFy8CUGWLG8WZT3p9PJWQieZrV0zIresuXNaCAU5eLR97l8+3T57yexYjlbGOLi9NDufFJmOI6ERzFbK9F9fxsnLGceMEU8COn5RfAOVZxVlP+uRIrh+vTTT9PS0tKwcVtaWvD5fHsfcFe0BwDIs5XJUUdngP7+/kZMz1b1cC38o6xLlX2LgWq1nIgSThR/quyjAoVx5hLYqwj8qm2BKi0LOyPhC5xcmyUcSQH9jIUCsJQqBOsqyYlo6Y3hYixEulhZe4c4wxXCE5Z2x/AAnTfeN1934n3S06d5eRCWS8FZ3osdCU8RJIf5SZCFYLXOJXaBWCi9W+H3jTJ2u3DMwDjxoHnaPxOfJF3RFtjTeukzg7IYijex91F8kvhgiNj5Idbmr5BMrLA8GCI2WLhIGBgn1jPrUL9aHjbWXmvx6xvfeKIhLQGr8t5oO15fK25jm43sOvfWGIDu7q5GTM2WTbge8Mp/qXqp72q+WVH5D3gMChWcJcQHQ8TOd3GtUVeru3oYAJZZYSaxAgQIDntJJ6Ol8Zfnl8kOd+GHQiWa5lpZwPTz8qCX9HvFSab46MYowdEAM0spGHyJAW+aZGT3nWhudpEz5wfMHwKj5hX40uMr/Hopx8mjfqBwnNxiYX5AapaFsxfo7gVsqkfrG5ndRayRqicl/YyFhiCXwz98gTGuEJmv+duTr7ndgDW/Nwxn701q97bi2t5gAw9t3nY267mCdZ/ZhKvdlX/MKum5j/e9+l3rQpJ51bn6MQZCUcZ4x74iCozbtiiClmp171yuFCrC2ubiVzgWu1CogsuXF/mDxWqvKMexweK3a6StDw2+xIAXOvc8p3Bhq7eLzsrnLN1ijQHLBv/e15Tr2d1j7VadF5Rs3uz6dueVTk7yUZVnHgud4+TaLJdvnyZ4axaC5xi7tXyAY8vXkRmwZuX62Wef8eSTTzases3n86Xv270+Wtkis74JbOL2+vB5IXMPAbu6utaQ+dmp0XMtXEhKWHpqNj3Yw1yVHynr7RVdID5cvsWsdner1mLvsSzoq1SyI89RXvkVXtuxLli7Xty2254YCU8RjIVIR27Vfn02/d+R0SE691wENM8ETgQw5+W1Vr7AYA9dYHkTqL52dMBmW3WWlkuhP1x5pX/kObvn+Tk5uMjlSApCpym9EQbGiXPrQDOQr6/f/jbNM88807Bw3dnZgbbH8XmaMLY3CsFqupPLkO/oxOdrrXsZVtHKinOtrep3aAVGOeld5ab1dPPGLOGJybKvwy13KqyXnJgkecMMssrvL8/nKifGy4MUgn6KeCzESChK/PwAy1f3htLc9TT0jRIO7G4bCJ3jpDfNRymAfsbCoVJwzV0v1pUpProB/rO7jzEYImYdqGJeJ/ogfb3yF2IZJ/UxafycCRWb6Obpd2dp18rHzTeSqoesSz9jZ/1kl/5tT9U5F7e7GJUurMAoN/Kc3+a1idj78MMP2djYaNh4Tc3NdDZvk8lkbJdeba5nyWQ2yLf48Pnsb5G188EHzvW77CvXwDjxYDcL86sEp6c4kZwkXueAe0+jy2VvH3yS5VLMRFK7VWbfEMFCpXvy/Dg3K6u+1CXCjBMvm5e1Olxh5roZ1KYcC1fNpUrL8UkIT+1eNMsVKjo7geP4SZO0u7B3PU0wOMDLgwniV3uInS9W5zkWrs6SPn+69NriExCe3q3es/NXqHbISsuJ90lPj5atFhgJX+Aki1yudfGpUD2bKtsSU4R7FunqS3Ot3v8TyNdUoc9qGLx37Rrf/vaf4/V6D/2RgoZhkM1kSn3d6jZZz9Z/aSufzzOXcq5g2PupWHtOr/e7wFV+Qav7vX16rpY7hqyL2K0XXEbCU5y4vUjXsFnVVbv9de8p++5cH+hNBAfR6AtzVlXaAUVlqwn2WdNcdqeXVguIhXWVgNvtpqmpCbfbzblzIc6FXrVfQnUAX375JVtbW3WE68HMvJNw9PZXfeTgfVV5m65l6dVD8U4gslcx9NxuN263C7e7qRCybn709t8zNDR0z58vsLW1xfr6eim8G2Vp6RNe/+5fNWw8OwrX+62wfrTUZ33Anz8g0gjWytX61dfXy1//8K955pn/9cABu7m5yZdfflm2jrYRbt/+lMnvfc/xz3RVuIrIoVWrXt1uN7//+08x/p//M9/85jfxer37hqRhGNy5c4eNjY2ylkMj3M8Py27qOfZ7+98PKSKyj2oBmMlkSf3qVxgG9PY+Vdq3cpnW3bt32djY4IsvvmB7e7ssVA8brvl8nncS7xL92xiff35//paWKlcRaQhrELpdLlyFytVsF5hB2dnZydkzZ3nhhefx+/0cOdKN2+3GMIyy1sJhg1V/oFBEHimVnzNghqq7+um9YWBgtgLy+TyGYez5eljpT2uL/P/t3W9sG/d9x/EPqb+OQ9GV7NgDqolBpAmOvASVnaXAHD8IpAcCH+9PQwvrumRTIRg4QU/SbiU4AQ2WooQIuIYNdM9UpkC3YtsDQg/EPknyoF0kYxkcBIzVlUKf2LDlVFIESbbE24PjnyN1/COLPxtR3i9AsHw8HX9HQ5/73vd+d0bTFCrQQijmcpLPl3OCVXIePiDJp+KsWM8w/bIHq0S4AmiysoC1bdk1T/FtOauVQtX955cZ4Qqg6Yrh6PM5AVtR0VZdX0cjWCXCFYBBhaCs9xjCoxKoboQrAOOOYnjWc7gnKgAAPBGuAGAA4QoABhCuAGAA4QoABhCuAGAA4QoABhCuAGAA4QoABhCuAGAA4QoABhCuAGAA4QoABhCuAGAA4QoABhCuAGCA58OyT508+aTHAQBPxb37941s1zNcTb0ZAHxV0BYAAAMIVwAwgHAFAAMIVwAwgHAFAAMIVwAwgHAFAAMIVwAwgHAFAAMIVwAwgHAFAAMIVwAwgHAFAAMIVwAwgHAFAAMIVwAwgHAFAAMIVwAwgHAFAAMIVwAwgHAFAAMIVwAwgHAFAAMIVwAwgHAFAAMIVwAwgHAFAAMIVwAwoPVpDwDAV0cwGNToyIheeeWC+vv71dPTLb+/+TVeLpfT6uoDLS8v66OPFrWQTmttba3p71OL76WXv2E/0XcE8JXi8/kkSW+++Xd641t/rfb2drW1tam1tbX4mm3b2tvb06NHj7S7u9v0MeRyOSXf+7l++tN/bfq2qyFcARhRCM5QqE/fe/ttDQ29qM7OTrW21j5h3tvb0/b2tpGQzWQ+0w/feUfZ7ErTt12JniuApnMH64/efVcvvfSnevbZZ+sGqyS1tLTo+PHj6ujoqHilQ8e7unS8crGkY4GgurxeqDA4+CeK//jHCoX6GtmNQyFcATSVz+crfn3v7bfV2/t1HTt27MDb6ezsVGdnp2vJjjYf2WrtrAjYjuNq89va291paLunTp3UP37/+wcez0FVP4yMXFEiHKr5w9nUtBJpSRqRNTum2mu7rMzLSmQ1PvNdnQ/UX915n/6G15ckbdzUtWhStxsdUzOMXFEi3KOlGzHNZWqsc+7T/P5flpIxzfV6LPP6+cGIZiLSXJX9GojENK6fKbr4qmbG7iqaSEvq1/jMmO5Er2rBa3sTw+pamZfl/EMCh+IO1u9852/14otnHytYCzo6Ooq9WEnS1oa2/V3qaO2QdnYkdeh4R6vsh2vabCxbJTkV7FtvvWm0B1u7Rq/xSzdqxTVU/FtaianK9ZzAVTGA95uLTmvOvaBmeCxXrD8ia+a0UtGkblcNECeQBzLXFU0u7xv/a/fyy70OJGX7Xm9f8geXlXlZhc9hMKKZiW59MFUxpvRVpc7FNROZd/axN6KZSw90LZqWNKIe3VbKHazVtlMnaKWzsmbP6pOpedcYL0orUqgvf4TauKlrU9NP9gCEI6vQCvD5fDoRDOqv/vIv9Mwzzxx6u52dnXrkb1dXZ6t8paUKBl1VbXtQwXbn29zDNW1s1d9u5I1v6Re/+Ddjswhqh2vfmBKzY1Vfzt7yXj5qxRXOtzSypyOamR2WFssDbiAS0+QF7zJ0cna4YsmGUw327g/BsnVn4woXxlYj1L1llSoGmBOWM5HsvlDep1D9SZ6fV3g2riHXWIqfTd+YzktS2Bn/eOQ3it49q1AgVL5PK/O6tjigSWtEC4WcVL/GI8N68P60bg9GXFWq26dKpM4qYb2qJUlDlnNwSJ2Oafze/oMN0AyFqvX1119XR0eHWlpaDr1Nv9+vtty21tc2y5YfCwSd5QcpWSu2Ozoyon//5S8PPUYvTapcS8vCffmfm0o769xNKjqV1KgVV2K2fJvrFYHrXY31O6fK+8ZUvXL1GtvBpJVavKjJUyFJdUIo4+yfw6kOVyvaAqNWTOO/d5YtJKaLYwz3bZS1EEatUOmgUGwfpCVltTRzWeO9+U9lZEznH8zLSksarLUbV2Wlnc/mk/z7DkQO/mkA9bjbAT6fT8PD31B7e3vTtt/W1lZqDTTRK69ceErh2mjlmj+tXl+8LivhHUYLxV/umBKzZ5Waiimqfo3PxPN91A0tpZzwCLmq2vXF64pGY85Geg+wZ09Ateo7NBF3qlK3ibgGFq8rmpTTO1ZW2Y2QzheWL76qoe4NdZ/u1/5AX9ZcNOYcfKR8aNYb3dnyPvhsXGFltbQodV34rhIXXKs+jf40jqRCuD7//PNqa2tr2nbb2toUDAb3v+CvaA9IknJ6uLahBjoD6u/vb8bwPFUP14Z+gWuvWwhUt9vJmKxCobevjyopv52FpLxVBH7VtkCVlkVDBiMavxBQNlX7AyjtS3lvd9SKK6ybWuoeVs/77vaEs17P+9P5ivKyVm/EdGcsrsSEc3DpPudUy6PnQsreuiqvi4XFfV6ZlzWvKj5VYupq/gCwqqUb85rLLGsgEsuH/LJGrZjOzNe4+AY0wN1rLXx97WsnmtIScCvvjR5TINguv72r7fVNPV5jQOrp6W7G0Dx5hOsBr/wX+qGZxq7mO62A0AHfQ/l2gCvEq13oeWwhhYvhnFVqav+BwVNxhsC05i7ElJgNOBV8clkDg79RaCyuRLjQz3UOJpI0ajkhm8hIykyXer3hsxpVVme6N7T6e6nsYqFX22Swxnn+YETjF6T1jZDOT1yWbsT064N/MEBdpYB1vrdts/cmHQu0y7e7rW11qDNwTDuNXMF6wjzC1evKvyp6gNXVupA0asX1Wo33KE4l8rrYMnLFs0URdlWr+8dyXas1R1u2dj4AnYNE2BrRQp19dSrUeV1bvKjJ/Om9NZWffTAbknPgmZaVGZE1G1d45b+11P1npQNQX1yJsFQ6QKX1ycqYhqwxhXRb1zLynMlQrFw3bupatQpfp52LXqnrWr00pjspKRyJ6E5GenCXi1loPidgncr1888/13PPPde06jWXyxW/PxYIql0Ptba5I2lH/kBQwYC09hgBu7r6oCnj81Kj59q/f86lRw/24FflS9yzCkoq+oEqVLulqnUgEtPkqQ/Lg75KJTt6Tjq/78JUv850Sw9ueYXMsuaSNzUwMSZrJF1z30ptj7SsxYhmJgpjd0J1LuPsY2JsXtbUdP6nlqR8ayCRLo37Tv4zXpi/qdcmhpVNXXWq02LLpdRSKBtTtcq1b9g5/U9L45dK2xm14tLd6vsENMPvfpfVCy+80LRw3dvbkzqfVbCjRfbudj5YHVsba8od71Iw2N7wNKyC5WVzhUaNmwjGdD6wWj7nsumTzUtXy0etuIZuOcHh/t6pZssGpm8OSgrkg37jplKZAYUvSEs3YvtO5RduZRUOlwflQOSyzgeyqtpSzSQ1tzigyUsRDaTrXegptVGyqWlFXQeAxESpReD26+R1fTNSXrU643amWHVJ6qp875Ex7zFnkop69UxX5vNnAO6G/YiG+rL6JFFzh4BD+/jjj3Xx4p973ML6eFpaW9WVe6i1tS88X9/ZXNeOOnS8K6hgu63d7fWGbir46KPFpozPi3e4FvqIi6uleZoNbjAULoSGt/V7Bx9kubTmomnNqVD5Diucr3TPT1zRHY9J+5auKFE2LvecVm+3kx8qOzumSeuurPzOV+6bU7VX9ERnnXBcL7QI9lnWbUU0HpC0cVNLD4bz4/5UQ4UbEaLONLbJGTlX8Qcjmgk707RqjTl0KiAVPt/Ks4zZKzqz2KPQyocN/1sCB5Pvs9q23v/gA33723+jQCBw6EcK2rat9bW1Yl+3uh1trjd+aSuXy2khbe7OxP3hOhjRTFhKTTnV1FzS6Rc6v5Ahj75n+VzNxnquDThdCqpsyqnAKi+YZVPTxeBz5HubleOoN/PB8/XyvrBnH1oqv4mg7h1P+X2Qe72k5vLVb7eryl1ITEtWXJPWrpa6h/Wg3t1hkqQNLc0vS5ll19xb93oXtXSD21xhhm07QWhLWltb13/853/pcuQN7ylUB7C1ZeZiVfK9nxt9xiuPHARwKIWK0u/3y+/3ye9vkd/vV0uLXz969180PDz82M8XePjwoTY3N4tTvJolk/lMb/39PzRte154KhaAQylMu7Jtu1S92rZyOVtXf/IT/fa3//dY1efOzk4xWJvp3r37+uE77zR1m15aTp/5o5jxdwFwpJXfSFC6oWB9fUMf/+//6I97e3XixAm1t7fXDUvbtrW1taWtra2yGxOaIZP5TP/0gx88kYdlE64AmqJaAK6trSv9q1/JtqXe3q8X162cpvXo0SNtb2/riy++0O7ublmoHjZcc7mcfpZ8T7F/ntEf/vBk/i8teq4AmsIdhH6fTz6/X36/3/m73wnKrq4uXXrtkl5++SWFQiGdPNkjv98v27aLYVr4mcMEK/9BIYAjpfI5A06o+quf3udnFzg92lyxX+v++rLiv9YG0DSFCrQQirmc5PPlnGCVnIcPSPKpOCvWM0y/7MEqEa4AmqwsYG1bds1T/NIMg8LPuv/8MiNcATRdMRx9PidgKyraquvraASrRLgCMKgQlPUeQ3hUAtWNcAVg3FEMz3q4QwsADCBcAcAAwhUADCBcAcAAwhUADCBcAcAAwhUADCBcAcAAwhUADCBcAcAAwhUADCBcAcAAwhUADCBcAcAAwhUADCBcAcAAz4dlnzp58kmPAwCeinv37xvZrme4mnozAPiqoC0AAAYQrgBgAOEKAAYQrgBgAOEKAAYQrgBgAOEKAAYQrgBgAOEKAAYQrgBgAOEKAAYQrgBgAOEKAAYQrgBgAOEKAAYQrgBgAOEKAAYQrgBgAOEKAAYQrgBgAOEKAAYQrgBgAOEKAAYQrgBgAOEKAAYQrgBgAOEKAAYQrgBgAOEKAAYQrgBgwP8DEpB5NGrwPioAAAAASUVORK5CYII=;" vertex="1" parent="1">
          <mxGeometry x="-210" y="278" width="320" height="518.72" as="geometry" />
        </mxCell>
        <mxCell id="EEVbNRZ3YIjHYYHEZtKa-53" value="" style="shape=image;verticalLabelPosition=bottom;labelBackgroundColor=default;verticalAlign=top;aspect=fixed;imageAspect=0;image=data:image/png,iVBORw0KGgoAAAANSUhEUgAAAU4AAAJCCAYAAACveS6PAAAgAElEQVR4nOzdf1DU977n+af5oQeh6QQ0csQOqE2QEEwEHDUhiZNLb6nMjMncqdnZQc7+s4eja1nVlHfuHzO3uFx2Zv+4Myxd67p6ObM1M0epqdqZM0lmF3EvXEdzOFGvgImKiqBCCB5QQaFBEk1k//h2N9/u/jbwRQSMr0dVKt3fn59GePX786Nh0fq3N4wjIiLT9sJ8N0BE5Fmj4BQRsUnBKSJik4JTRMQmBaeIiE0KThERmxScIiI2KThFRGxScIqI2KTgFBGxScEpImKTglNExCYFp4iITQpOERGbFJwiIjYpOEVEbFJwiojYpOAUEbFJwSkiYpOCU0TEJgWniIhNCk4REZsUnCIiNik4RURsUnCKiNj00lQHLF+2bC7aISIy7+7cvTut46YMzuleSETkeaGuuoiITQpOERGbFJwiIjYpOEVEbFJwiojYpOAUEbFJwSkiYpOCU0TEJgWniIhNCk4REZsUnCIiNik4RURsUnCKiNik4BQRsUnBKSJik4JTRMQmBaeIiE0KThERmxScIiI2KThFRGxScIqI2DTlX7kUEYn04osvsnnTJvx+f9j2uKVxtLdf4/79+0/1/ps2bWJwcJCOjo6nep9YVHGKiG1/9NHfZcu7m8nIcIf9l5e7gX/4ycdP/f7/4y92PfV7TEYVp4jY9t1333G+9Tx/c+K/hW13uVbx33k889SquTOD4HRTUrmHjPZDlNd2Wh9SuA9fUbppg5+WwxWcya9gb77DtL2LurIDNNhvhIjMMYfDQVHRDpbGxeF2r2Xx4sV4PIVhxyx64QVefOEF9uz+Fffu36ejo4OWltZ5avHTM0VwGiGZ57DYlb8HX37ENn8rB8tr6QCGm4PB6qakcqKs7qrbj68RoBBvddYTNV5E5tb51vOsXbuGhIQEbt++bXmM0+nk5Zdf4nzr+Tlu3dyZVsU5EXaTKNyH74OJp4lhweqnJfAovagKX1HoyrRNv60iMo/8fj/tfj9xcXEsWbKETz/73PK47DffJDv7TdqvXXviey5ZvNhy+wsvvMDLL79suf/7hw+f+L5TmX5XPbOYyt25JHbX4w2kqMdbRVFaIFgjDo9dcR6irqeTjnZVnCLPuv/hn/z3nD//FdeuXePP/uxfUPm//MtZvb7D4eDf/bv/K2r78uXL+d+q/g2PHoWH5H/6z7/lN785MqttsDJFcHZypt3P3qIqfP5WDpbtp4NCvNVVpHfX4/XtpwEjQH1p0FV3gA6AxgOUm65xpPwoJZUVbK6twEcxlbv3QPMhysumKmNF5FmxaNGiWb/m3YEB/v4/iJ6l/z8PHqDa97/P23KkKSvOjtoKvLXG44ziCnz5Drrq9nNwRQW+6ixjcicQoIZCvNXbSbe62O4q8oKPg11507ioiMizYFpd9YxiYzZ8uPkQ3rLgTHoF3lqj+iwKmx1vxGeqJI1zoeVwBX3bqyhKUlCKyLNt8uAMjmsGniZazaQDkE5RdRVF+Gk5O0Depol6Myxs2/fTkFlMZXVV6JpakiTy7OromFiSWFd3bB5bMrcmD872WsrLao0ALYYjlpViYPKntoIj7caWI3cn1nEaYat1nCI/FStSVrDkZ0sAaG5pCW0PPv7x8WPilsbNS9vmylP75JDWcYr8NPV+28t7777L/7xnt+X+V199lS9Pn36qbfg/Dh56qtefyvSD05HL3urcGDsn1mkGaR2nyE/TpbY2vjvyPcPDwzGPibU4frZcvnz5qV5/KtMPzpiz3+EVZZAqTpGfrs7OGB+3fk4sWv/2hvH5boSIyLNEv1ZORMQmBaeIiE0KThERmxScIiI2KThFRGxScIqI2KTgFBGxScEpImKTglNExCYFp4iITQpOERGbFJwiIjYpOEVEbFJwiojYpOAUEbHpqQXnL359iqZfl4Rtq/i0lU//Yjpnl/PpV7+l4qm0bHasytlMTqp5i5OM/DwynNM42ekmP9/NdA6dH6nkbHmLVeZNNtrsdOeR7164r87ytaS+xbvh/6AxRf/by/NmHirOEn79u9aoUI3iv8uNaVyt4tNpXGtOpZKzZRo/WN+PMRRrn9NN/pbNvBv8byH9lKa+xbuRoWrh+7GYr47g1yj4+hZSyDrdebw75RvEI74bmd71VuUssH8/mRWz/Mfayvn0qz/i7r/5kN9F7SshdRnAEX75/pFA4EHBrY/5eudqy6vt/6qV/RHbbnyeyyd/bjyu+LSVT1aD/+6svojYnG7y3/wZfacvWexM4Gcvw3f0cvH0CBn5m8nhDN/E5ZG9/GXLy727xRWx5RF3LvfxszeX8f03Z2juBSNkXOS7R2junCyMnpzTnUd2XB9fXrTYmfAzFvMd9F7iyxE3+VvegtM9xOVnYf3yNvPu6xGbHt2lrfkOr+W7WHLnCl92DgW+plnkjJ3hYu/svyazVTmbSRm7QvOd6H3OOOOvNg51tvBl6lu8m++mrXmM17e4cEQfDm9uZnnktpEevjS/iNS3eD0BmGbIyrNjloOzkk/P/RH7/7ic31mGmZ+7gT9aVPFJbqArfoS3/zz8qIpPW3mbmyy/+xkFvzxicZ1yPv3qY9b4b3LDvzr6G/hpGeqkb2QzKW4nfZYHfI9RaA3R0XwmsK2FL8P+PIuTjHw3P/seGGyxDovT5o293Btx8XpcAsSuUWfFUGcf/i0pZDitX12oSh7qpDn4Rwybz4T/HSqnm/yMn/E9cK/5Et9a3Sf0tQGG7jD0aBnOOCdP+/V9+81dUt50serOd5b7H44FEq73El8G/gkuno74B0p9i3eTwL/kO75p7pykxU4yfr6Eh49g8Ww0XhaUWf/zwL/55d/wyVd/xCcAdwv49Ksy1pgP+JNWvv6T4JObfPrOH5vGMkv49e/KyLpaTcEvj/CLX5/i609X8/YnlVH3+frzXD75c+P4OQtOJn74Xh0B4tzkb1kW9oPh2LKZUKH16C5tYT9cRvXIN0Z1tSpnM/lxV556JTl9vXxzJ4Xs11/FD8S583g3rJxMCKuSH96JaHvqW7z7Onxz+hLfkkrOljziLrfQMdnLcy7H+fIjhu7Mwdcg+Mb3OsB3vJazmewE8wFZvGv6ZvJ/E14FO915ZL8yZPybOo2qu++09ZuD0+3Geb+TvrgsIgtvefY9tT/W9otfn6KUf2uqGI2QW3ZioqttZnS7/fzt51fJ2rmRO8Eu+V/8lq93rg7rok8ID9q5tCpnM68Omn+wUsnZksJ3lkHhJCM/i+Uvj/DNN/D660u4EzjO6c4jezmh51GcbvIDXfen3ZWdkErOlle5Zw6F1Ld49+ffRbwRhLdx8UgP3+Di9SXBN4zA6ybyDQQmviZEd3GfNqeb/AzoMLVpYpjCoh2pb/Hu6wk8vNPD0Csuln8fbK/xRuiIav/E14+czbzOHL8+eeqezuTQX/yW/RsjRoZ2FZDlgDXry8M2V3zaytdftfL2hVzefudDfvnnv6Lgnc9gZ2BW/c//mLffyeXr9cZxC2EiyOnOM8auzFJfxcHLOJebpxWcZORv5t0tbug4w5enL/Ft7yW+vDyEM8OYgBjqbOHL052QYUyUhM8jpJITCKS5+7lzkpEfPa63KikBXnbyWtjLC0xiZUDH6TN8ebGXby+eoe2+kwy30fXuaD7Dlx2QsWVzxKRSYN/pK9xZ4prDCZTA1zRsm5PXXnkZEl4Nn/RKfcuYwEq6x5enz9Dc2UtH8xm+wRX4d+rl4ukzfDn4qnFcYFJpVY4LvrGuROWnYdYrzl/8+hT7113l06vrKDRXnH/xW75ef5e/XbYO/upDfnl0Nu429xXnqkAF8Q2usIrT6c4jgyG+X/6z8EptxmJVM09TcCihB143V5zGuCz3v2d53L3Zb09YF/8pcrrJf9PJ0DdDOH9urjiNCvG7O0tw0vlkQycR1ewqVZw/SbNbce76K0rXXaXq/V9FLCUq4dcfLeNvf/srfncV/s4fh1edwTWfwf9XfNrK15+ajynn069O8etds9pa+1LfivFDkMrry7+nr7OTeyMJpEQsrwmu+zP+b1ShYUtwAuNlq0zXy9kSmHmewx84o1KyGBJIdbH8+z46Ou/hT0iJWKsaXPMZ+L/TTf6W8PWsTnfepBWlM24JPPoO/2y+mOi7kJHhZOhyCx0Rs9xOdwpL7vTQcWcIlrus168G/2+xHGtVzsS/p3O5k8UvLyM7sNTq9QQgwTWNJU7yLJnd4Dz6Kwre/xW/idj8i1//T/ydu3/DL4/Cb375b/nbZR+bFsKX88lGuHJqomKs+CSXqrt/ZITnrr+i6XepfPr5Xf7On8zzovjeS5ZBtirHxZI7PXwLfHuxh++XuyeCw+kmJWGEe6HTjC5qX1yW8cOW+hbvvj5Gx50lvJ7vxhnsKo/0zPmk0bcXrcZRU8l5fQl3vukFern4zfcsz5gIAac7BcfIvYlKcaiT5tN9/OxNIzxX5Wzm9bFO7ixxBcIl8o0jldeXv8zD+3ee9poBOpotxpGdbjKWf09f5xAMdRr/DqaQX/X6MjC3rfcSX17+jpQtb7Eq8KGHuG96+H55FjmpwaGXM6H/vhnBGMOddAZenjVPfQF8sOteFZoZP8Iv/+ocy3canyL6xa//iDU3/yaq6/6bX35ozKZnLMNxt5ff/PkfU3VuGZ98Wh51j/kU7IpNhFwgXILB8foyCISq2bcXz9DcOYQzbgkPx0YY6mzhm++XkfHOapwvY1Qp5kXw81KxBLvupsDpvcQ33y8jO9+Nk1ReX04gVM16uXi6hY4hJ3FLHvHdyBAdzcE3lODjrMBrm583CWCi6355YohgqLNzYsw18KbXF9m2oU6aT1/iWxL42cvfMzbUy8XLd1ny+tQfDJCfhqc7q77sLiy7S41FFcquv6LpT9Zx5d+Yxjt3/RVNf7IxamLCekZ9fq3K2cyrjOAgxpif1bhdYHY23KPYM+rzxhjzYyQBBq1n863G7lblbI6eNItakrUAhNaaLuG7jtirIJz3zcutTKsAzOZ6RYAsCE8tOEVEfqr025FERGxScIqI2KTgFBGxScEpImKTglNExCYFp4iITVP+Wrn2D/7rXLRjXmR+8Q/muwki8gya9d/H+SxZvmzZfDdBJKY7d+fqTxuIXVoALyJik8Y4RURsUnCKiNik4BQRsUnBKSJik4JTRMQmBaeIiE0KThERmxScIiI2KThFRGxScIqI2KTgFBGxScEpImKTglNExCYFp4iITQpOERGbFJwiIjYpOEVEbFJwiojYpOAUEbFJwSkiYpOCU0TEJgWniIhNCk4REZsUnCIiNik4RURsUnCKiNik4BQRsekle4cX4q3eTrppS1d3F+lp6ZZHd9Xtx9cYfOampHIPebRysLyWjohjM4or2Js/QN3hQd7fnUuixfWGu7sgLT18X3c9Xh9R7Yqti7qyAzRM61gRkWg2gzOgu56DdwrYmw8DdyA9LSIkC/fhKwrEWGYxlbtzGaw7xMB0rt1eS3lZbeC8JDqak8lb3oR3IoGDN4kOy+56vL4uI6AH6/H6GvF4qyhKMsI63VtFUdqMXrGISMjMghNIX+4Afytn+pPIm+S4jPwMEoHEoj2BkMtlb3UuAF11hxj4wAi5g3dm2hIRkbk1w+DMIjsNhpvP0sF2ANKLqvAVRR7nZnOmI7wSDOuquyn5IPqckso95DmMZ3n5ANvxVW+P6PpbSNuOrzrw2GGcY5gIaxGRJzWz4ExLJx0YNm2y7qqnk+wgEGLBI00h5u+iK8YtuppbScoPdtU7aEnKJdmqew5AI76y8ET1BLrlk4ZtsJ3d9RZDASIi1mY8xlnHdoryd1HSPNnIpTnQrCaHjG2WkzrLk0j0D9JHsuX9zUFnTCw5LFtgVQkPNx+ivLZzknaLiMQ24zHOhktdFKWlk7zcCE7rrrpVqE1UnMPN9VGz60HpaenQfYWG/iSK8nPJg5jVaUdtBQcx7hOzwgxUl2H7Gw/gVaEpIjbNODjpGWSYdJKSjIqwq64eiraTHqgGM4orKFnhDhzsp+XwUSgOVpz9FFVvJ2mSyw8313OkuRHaG/H2GDPz0xErwEVEZssMxzi349sN+Fs5+EUSe4scQCN1zQXszS/A6y0gPc0BbCeveWYNS8zfzt787WHbBiMPKtyHryiZlsMVnAlsmqriFBF5UjMe4wyNMRbuC23uqG2iK3876WkT44gZxRVsjnmhLo6U7+cIkFFcELYnbBwy8ylVnJocEpEZmHlXPUIwsLqaWxnOzyUxfzue2gMW45JJFFXmko6fluaJCZr05Q4wLZFPzN+DLz/8zMiKM2NFMjBAXzsQOFYVp4g8bU8cnEZ4RVSItWcpqdxDUfU+6soq8NYCuCkBYJC68gOhSSGP+dM83VdoAEoirxeqOIPDAaY1mt1XSKmsoigw/zRVxZleVIXvg8DMviaHRGQGFq1/e8P4fDdCRORZot+OJCJik4JTRMQmBaeIiE0KThERmxScIiI2KThFRGxScIqI2KTgFBGxScEpImKTglNExCYFp4iITQpOERGbFJwiIjYpOEVEbFJwiojYpOAUEbFJwSkiYpOCU0TEJgWniIhNCk4REZsUnCIiNik4RURsUnCKiNik4BQRsUnBKSJi00vz3YCfmsePf2T88WN+/PGH+W6KiFh48cWXWPTCC7zwwoszvoaCcxY9fvwjjD/m56mriI9PmO/miIiF0dER+m59y+PHzDg81VWfVeOkrFRoiixk8fEJpKxcBYzP+BoKzln0w6NHCk2RZ0B8fAI/PHo04/MVnCIiNik4RURsUnCKiNg0o+D0eKvwFkY/Nu/3VVdRWeyOeb4v8qRJFeKtrqAkc7rH2r2+iMj0zcpypPSiKnxFpg3d9XjLGmMe31Dfyvu7t+MtbMQX+zCTRnx1Wfh276Ov7AANUfvdlFTuIc9hPOuq24+3EcgspnJ3Lomh47qoszxfRGT67AVn4T58RenG47QqfB+00jJoBFV0ABbirc6i7fAg74eF14TEyMCli7qyelJMIRipqLqKsFP8rRwsPwv4aTlcwZH2iBP8rRwsr6UDNyWV26f9UudPKpu2rWbkdBNtQ+F7XBs95HCZY+d6I45P4dbxFnoirpSYVUBB2hgXLfaFXziPHdlJMHCZppHVFKTFWR420NbA2Z7gdSOPGbS4T+zXEsa5jq1blnFnquNm4TzXRg85yWN0n25i+A0POclTvQaRaPaCs/EA3kajq519yQhLjzeXjBVuoDP82MwVJPkH6QLeD4XXZIygDbIO4wiZxVQWB584yNtdRZ7p/La3ckkcrJ/ivgtNL2dPO9i6xcOmQFCBEVY5S3toOtUbfrhzmFvdq8nZlgfH+1i57U3CsoA4crZ5yDFtMQIwlU3BY8d6aDrewjCQmLWaB91nOHnFH3YV10YPKwOPh680ceyKuQ3r2PoO2Mm8MENXae0uoOCddfScusqw3fO25DEcM/AcZH+4mVDOD1zm2HHja+hi4s3ACOH4mb4Cec48cVe94VIXRUV78OVH7+uq209HO5SXT+dKjfiC3fvy/RhBup30WIcHwti4tpvNERWnx1tFUVIrB8uD6dtJ32C6UbF21+O1SGWPt4oirPfNhchKbmm2hx3Z5iNcFGxzAUbF1DYEDPnpGWqCBA9rs65x8nhgIMKVx47suInjovRy9nhvKPRsCZzTGgy5xHiWPuiDrAJ2WFSryVs8pI310HTqKsOYAjtK8PWZBM8LVsWWot8cwr5GmALS9BrWJo9x59q0XrFImJkH54piKr39lPuMKjQWj7eKorTpX3ai0jQFqUlGcQV78x10fTF5Bdvg2x81lmm1baGJrPZcGz2s7DP/0DvI/vDt0P7ErAJy+ZqT5xomKi7nOraGhaZRdSXcMF3HuY6tW1wsDTwt2OaCsR4u3oalaZvZYfFvNtAXeDB0lesPPORm9XLyip/EhDgejAxHV6Ixu+pjkwT6JAYihyliMe5rlhz1JmSEaagNQ37GcBkBPO37yPPKfnAW7jOCMAkOljeGgixaoAK0DCs3JZW7oNZiTHISRgh3UVdWYXHNiK56cytJ+RZjqzGqTVgYwWoZWsmRP/RjdAcfjoxB9mZ2JAR+2AOVWVgo4Kftqx62bsnD1RPo0g5d5eTxq0aV+9rdQDVo6AkLP2s913pYu+UNXFeukfhaHGM3/KHu7nXb44TRwR7Vrp4WjvUwMR4bS6BCPXs8PPiiKs4ovVHniMRiKzgziivYu7yJuu50si8ZFV8GMNx8iPLa8DFOj7eClLDnVbx/J/q4KOYJKEvpURNEXXWHGLCYHMoggxKOhu5ptKFrGq90/titOId7Wjg5vI6tW1JwMUziGiNUrCosgJwP1zEUCkkHrtfigGXkfriO1q8g11SFRgl1t5kYX9z4BgNxg9zqAbjK9QEPa7Mc9ESMkUZJNIesn57bYxSkpEKPEV7OhDge3O6NHu8MBmjk5bIKKEiD7q+mM0YaMe5ppmpTpsFWcHbUVuAFPN7w2enEfKsxTj8tocduUpL8dNSbQzO8QoRgAMfo+hfuw/fBYIxJJjclH1i1t4nB6l2UNFdwJr/CGPP0TRHc88x2xQmB6jHw+FQDbTGvboSuy4lRjTpTWc4YD+KAMRe5K89w8vjV0NGujR7WjkRPFAUNX7nJwLY3SR64zNnANqMSfZvsW1N0xYd7uTO2ORSywyNjkJaCi156SGVl8hh3rk0RvqHXtJnlt89w7Hjs48PeSAYuc+zUZRIihhGMNymFpkxtVtZxTllxFm4nz+FgON8N7cHjYiwfeiKmCaXA5JHv8Aoqd1eRN42Z/fmeHAL7FScQsSzHtDzJlceONaM0nerFFewKn2oKnZa4chljt+8S9xpGtflOKolXbMxqBy11kAihSvT6gIe1Kx1TTLP7absxyI41gXv29DGQvZpEJ5CYQvLYXa6Ezp+kQgyyesMZuMyxc8arseqqX+leTcEbqbQFhjhylvbQpLVIMg2zEpyTVpyZxVQWpdNVVw9Fe/Atr8frm2F3ebDfMvg83sC6z91Z1JXtxxfcEez2+/0MO3LZW8k0lkXNn+ErTZyc8ig/babwA4xZ7bG79NhcA5n72l0jMF/DqFpPOcj+0BMeUMkTgRQd6ka1eZE3QxNFAD2hiSqL1btOB3GMcWsIYJQHccsCFfAwI2NxJCSCKyWJB7evmQLcT1uMSjoxq4CChJuTdK9jLAhmomLelOUgLi2O7tMt9t805Lk0wwXwXdT5JjbHrjjdlBTnMhicKW9sDHwcM3BQRFc9+lrhnwgabq63bFaD7xAplbugNvCpoOAnhvytHCw7MBGUmcVUVleRGGOCaD4nh6ICyyyqq24IBllY0LhSSB4bJeb8TnAp0Vdw58ZVhlln2hkeUJN21V155CQPcvF4Lz1Ox/S65xhV7tKBm4EJql7ujLlYvtIBQ8a9IZVN2dPtptthrlqDs/q9nG1LYUe2iwfdZ+zP8stza9H6tzfM/Ld5SpiH34+RmfXWrF4zuqseybzkx1gjSbBbatVVJ7gt0CWPXJMZcW/L4LT4xI71sZHLkabxSSJXRPumMFXFaXxSCKKWQAWXY431hL4+aXH65NDzpP3KJRYvmWz8Jzb96YxnnSuFZMa4lZjHji1xdJ9usAilwKx1tocdwIPua5ahZPlRyuTwscOBtgZupbgYawu/z0T3PPqTOmeHgtdfTfLATc4OTTVmmWRaCG8RZhFrUAfaYk/o9Jw7Q+KHm0m4ER7yRrU8sfa17VQDbc51bNU6TpkGVZyz6GlUnCLydDxJxanfxykiYpOCU0TEJgWniIhNCk4REZsUnLNo8eLFjI6OzHczRGQKo6MjLF68eMbnKzhnUVzcUvr+0KvwFFnARkdH6PtDL3FxMX+dzZS0jnMW/fh4HIcjkdt9t3j48OF8N0dELCxevBiHI5FHj36Y8TUUnLMoGJbOV5J46SV9aUUWoh9++IGxsbEnKm700z3LHj58qGpT5CdOY5wiIjYpOEVEbFJwiojYpOAUEbFJwSkiYpOCU0TEJgWniIhNCk4REZsUnCIiNik4RURsUnCKiNik4BQRsUnBKSJik4JTRMQmBaeIiE0KThERmxScIiI2KThFRGxScIqI2KTgFBGxSX+sbZY9fvwj448f8+OPM//ToyLy9Lz44ksseuEFXnjhxRlfQ8E5ix4//hHGH/Pz1FXExyfMd3NExMLo6Ah9t77l8WNmHJ7qqs+qcVJWKjRFFrL4+ARSVq4Cxmd8DQXnLPrh0SOFpsgzID4+gR8ePZrx+QpOERGbFJwiIjYpOEVEbHry4MwsprJ6H55pH1tFZbF7Gge7KamsoCTTvK0Q73TvJSLylCxa//aGmU8tBWQUV7A3s4OD5bV0RO0txFu9nXQA/LQcruBIO1C4D19R+sRh/tbw8zOLqSyGjsFc8tImu3sXdWUHaHjSFzELHn4/RmbWW094lVQ2bVvNyOkm2obC97g2esjhMsfO9UYcn8Kt4y30RFwpMauAgrQxLlrsC79wHjuyk2DgMk0jqylIi7M8bKCtgbM9wetGHjNocZ/YryWMcx1btyzjzlTHzcJ5ro0ecpLH6D7dxPAbHnKSp3oNxjlrR85w8orftDGPHSl9Ef8W8ixpv3KJxUusv9enYnMdpzkEI+Wytzo3fFN3PV4fxAy37nq8vkbjupUrwnZl5GdA+1GO1NZyJOz+WbQtkKB8Ono5e9rB1i0eNgWCCoywylnaQ9OpiB9U5zC3uleTsy0PjvexctubhGUBceRs85Bj2mIEYCqbgseO9dB0vIVhIDFrNQ+6I0ICIzxWBh4PX2ni2BVzG9ax9R2wk3lhhq7S2l1AwTvr6Dl1lWG7523JYzjmm4OD7A83E8r5gcscO258DV1MvBkYIRxvcX4qK5MHud73Bju2JUXsS2LHtjdNz62DV356ZrAA3lQ1TqZwH75Q8ZVOUXUVRaHzj8IH6Qy318c6maJ86Fjl/jgAACAASURBVDjciVVYp4ddaxpteUZEVnJLsz3syDYf4aJgmwswKqa2IWDIT89QEyR4WJt1jZPHA28prjx2ZMdNHBell7PHe0OhZ0vgnNZgyCXGs/RBH2QVsMOiWk3e4iFtrIemU1cZxhTYUYKvzyR4XrAqthT95hD2NcIUkKbXsDZ5jDvXpnitrhSSB/o429NLj/l8VZzPNZvB2YivrDEwVplLYqzDuuvx+g7gbQQoJLzidFNSuYe8wXq8tZ2BE7oYYDt7q3MZbj7EEQpIBwZCF7SqWN2UVO6K3dTMYip3Z9DxjAVrZLXn2uhhZZ/5h95B9odvh/YnZhWQy9ecPNcwUek417E1LDSNqivhhuk6znVs3eJiaeBpwTYXjPVw8TYsTdvMDovhkYG+wIOhq1x/4CE3q5eTV/wkJsTxYGQ4uhKN2VUfmyTQJzEQOUwRi3Ffs+SoNyEjTENtGPIzhssI4NB9HGSvSWLgRgtgNURhrjhVbT5PZvaRy/ZaystqozZ7vFUUpflpqW+c5OROjpTvN3W/I7cV4q2G4bCeorliNfPTMoPmL2SWoZUc+UM/Rnfw4cgYZG9mR0Lghz1QmYWFAn7avuph65Y8XD2BH+6hq5w8ftUIg9fuBqpBQ09Y+FnrudbD2i1v4LpyjcTX4hi74Q91d6/bDpDoYI9qV08Lx3qYGI+NJVChnj0eHrBRFWeU3qhzcL1BWpz5DTz6jc1gjDPL82OWPqseqCJp5WCZ1QRRRFe9eYC8/OiR0uHmQ5Q3r2Cg7igDH5iryRlUnO21lJfN6MXMK7sV53BPCyeH17F1SwouhklcY4SKVYUFkPPhOoZCIenA9VocsIzcD9fR+hXkmqrQKKHuNhPjixvfYCBukFs9AFe5PuBhbZaDnqhwiZBoDlk/PbfHKEhJhR4jvJwJcTy43Rs93hkM0MjLZRVQkAbdX01njDRi3NMsVG2msik7jgdj4btjVeMwyK0p7ys/FbaCM6O4gr35jkmOiJwg8tNyuAmr4OtbXkX2pf34GiEYvMn9ndDeyZF2NyUfmK+rijNmxQmB6jHw+FQDbTGvboSuy4lRjTpTWc4YD+KAMRe5K89w8vjV0NGWs8kmw1duMrDtTZIHLnM2sM2oRN8m+9YUXfHhXu6MbQ6F7PDIGKSl4KKXHlJZmTzGnWtThG/oNW1m+e0zHDse+/iwN5KByxw7dZmEiGEE400qUHU6HdD9NdcTNocmxUAVpxhsBWdHbQXe6B66EajLmwIz5JEK8Vpsbahv5f3d+/A0HgBvYMwzZg9/BhXnM8puxQlELMsxLU9y5bFjzShNp3pxBbvCp5pCpyWuXMbY7bvEvYZRbb6TSuIVG7PaQUsdJEKoEr0+4GHtSscU0+x+2m4MsmNN4J49fQxkrybRCSSmkDx2lyuh8yepEIOs3nAGLnPsnPFqrLrqV7pXU/BGKm2BIY6cpT00BY8ZusrZIXBtjHipqjiFufy1cpnFVO4OTCh11+P11VJetw9fdZVpWVIsM6g4n8HJoeErTZyc8ig/babwA4xZ7bG79NhcA5n72l0jMF/DqFpPOcj+0BMeUMkTQREd6ka1eZE3QxNFAD2hiSqL6UOngzjGuDUEMMqDuGWBCniYkbE4EhLBlZLEg9vXTAHupy1GJZ2YVUBBws1JJo1i95CCFfOmLAdxaXF0n26Z8k1DFafALAbn8J0ui61uSiqNpUTpxYMcLNsfGv8Mdfv9fobTtuPzMkl4/vQrzqjAMovqqhuCP8RhQeNKIXlslJjzO8GlRF/BnRtXGWadaWd4QE3aVXflkZM8yMXjvfQ4HdPrnmNUuUsHbgYmqHq5M+Zi+UoHDBn3NsYWp9tNt8NctQZn9Xs525bCjmwXD7rPTGuWXxWnwBMFZ/j6yq66TotjOjlSXk9ydRZtwU8FBT8x1F2Pt8wUlIX78FVvNyaIgsMBrokqNd2y4gR2V5FcFxwrNXnGJodiVVTRXfVI5vHAVDZlJzHQNknllBjPUkZh6GpgnHMGjTUtdwrO0E90zycLvFSy0qD7dLA6DIaliSuym/5kXBsDYZn9NiOnGzgWvK5zHVu3uVg61kPT8Wu4PtzMjrSplxSp4hSYpY9cimF2PnIZbsrgdOWxIxsutkFO5IL30BjnVTCtQQz74TctZsfyo5ThBtoauJUyWZssPqkT6EZPdKuHpx6zDLEIs4g1qJMvNYpe6mR87HKS65rabHz9L0N2rEX74aZe9iQLxZN85FLBOYueRnCKyNPxJMGpXysnImKTglNExCYFp4iITQpOERGbFJyzaPHixYyOjsx3M0RkCqOjIyxevHjG5ys4Z1Fc3FL6/tCr8BRZwEZHR+j7Qy9xcTF/nc2U5u4jl8+BHx+P43AkcrvvFg8fPpzv5oiIhcWLF+NwJPLo0Q8zvoaCcxYFw9L5ShIvvaQvrchC9MMPPzA2NvZExY1+umfZw4cPVW2K/MRpjFNExCYFp4iITQpOERGbFJwiIjYpOEVEbFJwiojYpOAUEbFJwSkiYpOCU0TEJgWniIhNCk4REZsUnCIiNik4RURsUnCKiNik4BQRsUnBKSJik4JTRMQmBaeIiE0KThERmxScIiI26Y+1zaJXnE7+9E//GevWZbJo0aL5bo7IUzc+Ps7Vq+385V/+a+4PDc13c+bMovVvbxif70b8VPyv/+pf8u67W3jllVcUnPJcGB8f5/79+3z55Wn++b/4s/luzpxRV30WrVuXqdCU58qiRYt45ZVXWLcuc76bMqcUnLNo0aJFCk157jyP3/cKThERmxScIiI2KThFRGyyuRzJTUnlHvIc0zt6uPkQ5bWdkFlMZTEcKa+lw3xA4T58HwxyMHL7NGQUV1DCUeP6wWsVQV3ZARoyi6ncnUui5Zl+Wg5XcKTd5g1ny+3z1Hy7ktLcFRE7HtDZ+HvY4sEdb97ez/maCziKJ7b3t9Zwa1UpG+I7aTgN7xW6WRp5tc4Gfs97eNzQ2XiUEzesm7P6o1143EtD1/28efLmb/y4lA2vBdvRgD8z0K7RibbQ2cDREzfNZ7GzdAORr1jkWWUzODs5Ur6fI2CE4e4kfld2gIbgbqttAK4kEhmMuJabkg/S6friQERoRodzKIAn03gAL/vwVRbTVV5LeVmtxUFuSip3TeN1PkWvrWTjZ5/TkLiL9/h9RMAAN2o4EXpiBM6Gj5dRc7qTlYVultLPrebVOKY9ibkUd+EuaDyKf/1E6IUC+efhkWsOxkj9rTXcAoyQD4Rxs7m9cLMRdqabA7mf8zW3pttYmQf9/f3Ex8eTkJAAwMjICP39/axdu3aeW7Zwzd0C+MH+iGpzO3mD9Xgbsag8J6pCo7KcQqiiPWBcb0FbwYbij2g4fQsKPZS6g9tjVZzAaxvYmVRD+203mcMXOMdNqJ0IrJs1wUcb2Vns4ELtCYw4vknNCSN83YU7OV9Tw/mPA5Vq7U1WF1vca1qW4i4sxRGz4rw55RVk/o2MjDA6OsqNGzd49dVXefXVVwG4d+8e169fJyEhISxQZcJTDs5CvNXbSQcgHV/1dvC3crC8lvS3kmmpD6Rc4wHq3qqipPgs5VaFIpvwVu8JXMdsD7586DrbOrHJsps+z93zSPFuPIUYYRMKuQBzxZm/M9SlX5Fbygr6Of/ZzYmqcNS6q+4pdZu66sE9K9jw8UZqPqvhHKv5aMahaXaTE6YAZ81HvBfcc+IooTxnIzuf9FYyq+7du8df//Vfk5SUxMjICIODgyxevBiAhw8fMjIywoULFxgZGWHr1q2hUBXDUw7ORnxljXi8FaTUV3AEozKkcB9FSTC8uwqf+fC0XZQ0H7W4zll8EV3vsDHOzGIq3zTt7K7H6wuWntPvnnu8VRRhPneW3T5PzWfngGCX2I0nVHJaV5yhccc1H7Gr0M2G0lKbN+3nfM3nnAMjiEtLA/eqoeYG8EQhajo3EOKhPeqqL2gPHz4kKSkJj8fD9evXSUpKiqo48/PzuXDhAg8fPpzn1i48toIzo7iCvfnhM0NF1VUURRw3sc1Py+EmktMGaGsHCpNIHBxk8wfp4PDTcXh/WBXo8VZRtD2PFhzk7a4iL7B9uDlw7+VN0wu1tO1GdRvip8XOC31aXttAaemGwFihKdDMboSPGW78uJTSTCOU/FGTLoaJrjphVerNE0ep6fqIXaWlbAjsDlWihaW4o64E5z6riW6TuT2rwu4cs+KUhe/hw4f09/eTkJAQehzkcrno7+9ndHR0Hlu4cNkKzo7aCrzBwm+6k0OZxVT6B+kCMlYkM3ynniO+WmOCKUKDbz8NuCmpzIoa4+yoPUpL5R68hY1MmZ0zrDiN+8+VFWwo3YXDclwzovoMfO863MExUaOKW1m6gRWRs/S3z1NT8zkwUfX1t9ZwNGy2/OZEN9oUtDDdyaGg2BXnssTIeX5ZaCLD0srIyMgctebZ8mRd9UAgTiYjP4NEOgA3mzOho7YzsHQoesTSCLxYV+zkyBdd+Ir24Wk8MOV9nx0RVVvIaj7aEuOUUT931ziImlgPhmhpaaCyNKzILaU013gcPfY5+/zDNzl3wly5aoxzIUpISGD9+vWTHnPhwoU5as2zZcbBmZGfQeJg05TrLztqK/AW7sNXvceYGGoHXBZLjDKLqdwe8zKGxolZ84zJjluoXXVLVmOMgYrTUj/na0/AR7ui124O32V14lz8sgXTMIPFcqSPksyVq8Y45adnhsFZSFG+g666aU6iNF6hqyiddEcuRYW14RNClqLHOG3pntkEz1OfHArTz/lWP47pVJyjfm7i4L3ALPyyj0vxBLvT8Q5WN39OTXPgnOLwOH1gOS5q6qozeffc2go2lJayITSr76A9tEi/n/M1dtaZijx7ZhCcxhKjpOZDlE8rX4zjqduPt6eYyt378NRBYr6xlChMd33ggc11nGbttZQvlGVHkzj32QU+Kn4PTk9Rcd4+T81nsDH/BEfbg7PiJvHmmfloS93mtaJTd9WnPTk0OrEWdCmwoXQ952vO0/nRXc7lr6f0iZc6iSxc9oIzs5jK3Rl0HN6Pb1rh5Kak0ghNo4irpbwMKNzH+zG76p0cKa8Ibe6oraA8+CRsbNRPy+EpPk0U4PFWUZQWPC0wXGBhbiaH+rnVHPwI4gPCXkHYus6N7CyE/va7gWDdQGZnAzU1Uywuz17P6rYL3LSoPqdj2p8cOh25gH4FG0rhfA3sLF1B2KeL8ndidxGVyEKm3wA/iz79L/+ZNWvWzHczRKY0MjJCXV0dSUlJkx43OjpKYWHhlJ8eunHjBp/8w380m01c0PQ3h0SeQwkJCRQVFU25TlMfubSm4BR5TiUkJCgUZ0i/j1NExCYFp4iITQpOERGbFJwiIjYpOGfR+Pg44+Na3SXPl+fx+17BOYuuXm3n/v37z903kTy/xsfHuX//PlevPgMf15tFWgA/i15xOvnTP/1nrFuXyaJFi+a7OSJP3fj4OFevtvOXf/mvuT80NN/NmTMKThERm9RVFxGxScEpImKTglNExCYFp4iITQpOERGbFJwiIjYpOEVEbFJwiojYpOAUEbFJwSkiYpOCU0TEJgWniIhNCk4REZsUnCIiNik4RURsUnCKiNik4BQRsUnBKSJik4JTRMQmBaeIiE0vzXcDfkr0Vy7leaO/cilP7H/9V/+Sd9/dwiuvvKLglOdC8O+qf/nlaf75v/iz+W7OnFFXfRatW5ep0JTnyqJFi3jllVdYty5zvpsypxScs2jRokUKTXnuPI/f9wpOERGbFJwiIjYpOEVEbJrZcqTCffg+GORgeS0dps0ZxRWUcJTy2s7Jz88sprIYjkScb0fUvQr34SuCurIDNGQWU7k7l0TLM/20HK7gSPsMb/ykbp+n5tuVlOauiNjxgM7G38MWD+548/Z+ztdcwFE8sb2/tYZbq0rZEN9Jw2l4r9DN0sirdTbwe97D44bOxqOcuGHdnNUf7cLjXhq67ufNkzd/48elbHgt2I4G/JmBdo1OtIXOBo6euGk+i52lG4h8xSLPqhkEp5uSD9Lp+uLANELPTUnlHvIc1nv3VudGbRtu/q90ZP6DsHOGmw9NHcaNB/CyD19lMV3ltZSX1cZoz64pW/1UvbaSjZ99TkPiLt7j9xEBA9yo4UToiRE4Gz5eRs3pTlYWullKP7eaV+OY9iTmUtyFu6DxKP71E6EXCuSfh0euORgj9bfWcAswQj4Qxs3m9sLNRtiZbg7kfs7X3JpuY0WeCfaDs3A7eYP1eBsBCvFWbyc97IA9+PKDj/20HN6PN7K6m7TidFNSOVEVGpXlFELXOxBo10K2gg3FH9Fw+hYUeih1B7fHqjiB1zawM6mG9ttuMocvcI6bUDsRWDdrgo82srPYwYXaExhxfJOaE0b4ugt3cr6mhvMfByrV2pusLra417QsxV1YiiNmxXlzyivIwnH9+nWSkpJ49dVXAbh37x7Xr18nPz9/ijOfXzaDsxBvEdSVNZq6xvvxBfbG6qpnFFewNz+67IysOLvq9uOzDL5NeKv3RAQ0BEO662zrxCbLbvo8d88jxbvxFGKETSjkAswVZ/7OUJd+RW4pK+jn/Gc3J6rCUeuuuqfUbeqqB/esYMPHG6n5rIZzrOajGYem2U1OmAKcNR/xXnDPiaOE8pyN7HzSW8ms6+/vB+D27ds8evSIhw8fAkZw9vf3h/avWKFBlkj2grMwi3TSSa+uoggj6BqmeWpYKFpUnB5vFdkxzz6LL6LrHRbSmcVUvmna2V2PN3Sz6XfPPd4qijCfO8tun6fms3NAsEvsxhMqOa0rztC445qP2FXoZkNpqc2b9nO+5nPOgRHEpaWBe9VQcwN4ohA1nRsI8dAeddUXtP7+fr788kvWrl3LyMgI4+PjoeAcGRnh4cOHofDMz88PVaNisBecjQfwNhrjlhnth/A1BsImzXyQqavePdMQcpC3u4q8wLPh5kDVurxpetdL246vertpg5+WGbRi1r22gdLSDYGxQlOgmd0IHzPc+HEppZlGKPmjJl0ME111wqrUmyeOUtP1EbtKS9kQ2B2qRAtLcUddCc59VhPdJnN7VoXdOWbFKQtfQkIC69evp7+/n/j4eBISEgAjOPv7+1m7di0XLlwIBapMsD3G6fHuMcY4A93xBt/0qs70oip8ReHborrql4KPosc4O2qP0lK5B29hY4zuvMkMK87pvpbZsYINpbtwWI5rRlSfo8ZWhzs4JmpUcStLN7Aicpb+9nlqaj4HJqq+/tYajobNlt+c6EabghamOzkUFLviXJYYOc8vC829e/doaIj9HX/jxg1GR0fVVbdgLzgzi3k/DSBQ0flbOfhFEnuLokcfYaJ73lFbgbd24hqhMUhbFWknR77owle0D0/jAbpsNXwhi6jaQlbz0ZYYp4z6ubvGQdTEejBES0sDlaVhRW4ppYH3qOixz9nnH77JuRPmylVjnAtRfHw869evn/SY69evz1Frni32grPdYplP4T7LALQas8wormBvZgcHD7dSUgxHLmXhq84y1l5O5/6NE7PmGZMdt1C76pasxhgDFaelfs7XnoCPdkWv3Ry+y+rEufhlC6ZhBovlSB8lmStXjXEuVIsXL56ymgxOEEm4GS2An5gl76KubhonFO7DV5TOcPMhvOXGZA4QCMJCvNVVFPlbTQvqo8c4bZnh2OpTnxwK08/5Vj+O6VSco35u4uC9wCz8so9L8QS70/EOVjd/Tk1z4Jzi8Dh9YDkuauqqM3n33NoKNpSWsiE0q++gPbRIv5/zNXbWmYo8e2zOqpsCsGziEztFURWeoetSYAH8YD3esgMxLtqIr6zR6MJXV0Hzf6XDYoxz2tprKV8oy44mce6zC3xU/B6cnqLivH2ems9gY/4JjrYHZ8VN4s0z89GWus1rRafuqk97cmh0Yi3oUmBD6XrO15yn86O7nMtfT+kTL3USWbhmMKtusT1mV72TI+X7OTKda4cNA5wKbe6oraA8+CQQ3AY/LYen+DSRqS2hmX9/KwdjBOvcTA71c6s5+BHEB4S9grB1nRvZWQj97XcDwbqBzM4GamqmWFyevZ7VbRe4aVF9Tse0Pzl0OnIB/Qo2lML5GthZuoKwTxfl78TuIiqRhUy/AX4Wffpf/jNr1qyZ72aITOnevXucPHmStWvXTnrcdNdx3rhxg0/+4T+azSYuaPqbQyLPoVdffZWtW7dOuUbT5XJp8bsFBafIc0qBOHP6fZwiIjYpOEVEbFJwiojYpOAUEbFJwTmLxsfHGR/X6i55vjyP3/cKzll09Wo79+/ff+6+ieT5NT4+zv3797l69Rn4uN4s0gL4WfSK08mf/uk/Y926TBYtWjTfzRF56sbHx7l6tZ2//Mt/zf2hofluzpxRcIqI2KSuuoiITQpOERGbFJwiIjYpOEVEbFJwiojYpOAUEbFJwSkiYpOCU0TEJgWniIhNCk4REZsUnCIiNik4RURsUnCKiNik4BQRsUnBKSJik4JTRMQmBaeIiE0KThERmxScIiI2KThFRGxScIqI2PTSfDfgp+bx4x8Zf/yYH3/8Yb6bIiIWXnzxJRa98AIvvPDijK+h4JxFjx//COOP+XnqKuLjE+a7OSJiYXR0hL5b3/L4MTMOT3XVZ9U4KSsVmiILWXx8AikrVwHjM76GgnMW/fDokUJT5BkQH5/AD48ezfh8BaeIiE0KThERmxScIiI22ZxVd1NSuYc8h2lTdz1eXxcllbugtoIj7cZmj7eK9+8cory2EyjEW72d9Mku3V2P19c48bxwH76iZFoOG9fMKK6ghKNh16NuP75GILOYyt25JFpcdrj5EL9bvofsS/vxNRbirVxBXXktHfZeuIhIyAyWI/lDYUZmMZXbo4/IKK6gKKmVg75O09Yu6soO0GB1ycJ9+N6KuEZPPQebd7F39z76yg7QNXGwEcLd9dRRCDRCey3lZWdN4e2mpHI7feXG/Txe+69y7qWyadtqRk430TZkZ5+D7A83k3CjgbM9gU2uPHasGaXp1FWcGz2sHTnDySt+69u68tiR0sexc73G4+ykmC0caDPdQ+Q5NsN1nIHKrTZ6T0ZxBXszOzgYVdWlU1RdRVGsS3ZfCXva0d4J7RV4A/fICO1pxFfWyE9PL1e6V1OwJY/h49dI/HAzaXHhRyRv8ZBmem4EmZ+2G4PsyC4ge9gIVldKEg9uX2MYcNppQk8LxzAFaZBzHVu3xHNLoSkCzPYC+Px9MUITpl9xWgwHhOzBlx+xyd/K2cFcNgUTZXcVecF91VUU+VtpGbT9SubF8JUmLiZ4WJsFJ0810BbaM1nFCfS00JRQQMEbqbRdc7A2GZYmb2ZH8GtifswgF4+30ONcx9YtLpYCkMSObW8GgriFiyketmYNG1Vq4LixtgaUmyKG2Q3O5gOhCjHcFFVi4wG8od2dHCnfz5Hg08xiKncn0dGcTEYmJDqYGCoIqeU/Uoi3Oou2sgM0ENlVzyV5Gs33eKsoImKsdY71nDMCKjGrgIKIkjO84gwEYODZ8JUmjgGujR6WDlwOVYyuWF31oaucPH41vKtuagMbPezYBjBG9+kG68AWmUM7/34R6elpMfePj4/z7//DUYb9MYalZtEsBOcKSiq3GxWiudoD4B73eJVX7VwuMEmUUVzB3nwH+Fs5WHYAiivIG2ziYHsBe4P38beGqtuM4gLSu5vwWVyywbffutJdQLI/9Bhd87Eemk5dNYIwNHoRu+J0bfSQkwyhID33hJWhqRJ9MDAIyUmkbclj2BTSIvMhMTGRRYsWTXpM3NK4ZyU4+zlSfggCEzN92ytIqY+sCAl0x69Mo5orxFtdRbq/lYNlE13+DGD4ThcdtY2hqtbjrWJvdRJ1hwd5P7ODg+Uxrl24D19RYE6/uz7mjPp8BmzbqQbanOvY+g4xJ2kixzgZuMyxcw30kMqmbSlhoRd+ormrHjzPNIaZ/CY7tr0ZeGJVYaayaZuHHMbojjVcIPKUHf/rBv7pP/nHluE5Pj5OS+tX9PffnpO2zCw4XStIGuyngxVRuxouDVCZ74b2zrDtnrfSGb5TP/17OHLZW50bsdFijBOMWfVy84ZOjpRfwVu9D8oO0BA2FPAM6Gnh2LAxIXPdotKbsvuN0dXP5WtOXvFbH28O2cggBYzZ+rfhqybahno5ezxyv8jcunPnLidP/Y6/u/WDqH1/6Oun6fdfzllbbAZnJ0fKK4wKLi2XyvxDlPs6AffEIY31dFTuoiQzuupMzI8RfGDqdluMh2YWU7k7A/zQUWtRzcJE1z5CeuRMfuR60QUtiZxtHnIs9jwYmfxMZ0IcWByTmFVAQcJNjp0zj3EGdlpVuuYq1zJgRebO1xcusnLlz8l8Y2Kdzfj4OCdPfTGn7ZhBxemm5INkWg4fguI9VBYfojxsQqiTI7UdVO6uoMQ0iTNpN7hwH763+mN0oQvx7s5lsG4/vp7iqOsGddRWRExMmSeLpmchTA6FC58ACnJt9LB2krOMcc9BLp6LHutxJsTxYGTY+sSeFo6FbmauOGfQdJGn5OSpL1iVmkp8/FLGx8c59UUTt2/fmdM22A7OjOJdZLQfpby9E8rr8VbvoqT5qLEzfx++4kEOltdSfjh2yEVdc0Uyw3e6IrYGP23kp+Xw/sA1aikvM8ZAfeaF+D81rjw2JYwy7YrTlUIycCuwGD7twWWOmbrWPX2D5GQHxznH6L5mMXgea3zUcu3ozF6WyGwYG/uOE//tJH+vaDsdndf56usLc96GRevf3jD9X0pXuA/fB4PR6zSDH3mcVjfY6uOX5jWe5sCcLBgnjrvV72Bl9HBrbE+pu/7w+zEys96a+sBYgl3lsR6avoLcaYxxGsuWxujujiMtbcyyQp3ynpEL3gFVnLLQrVmdTn//bUYfPJjR+e1XLrF4SdzUB1qwF5wyqScNTvOETvDTOqHgDKsIJ2a3XRsLSLwWCLdYVWOkgcscE9nMKwAAG3tJREFUOwebtr1JMrGqSAWn/LQpOBeIJ644RWTOPElw6tfKiYjYpOAUEbFJwSkiYpOCU0TEJgWniIhNCs5ZtHjxYkZHp/gspIjMu9HRERYvXjzj8xWcsygubil9f+hVeIosYKOjI/T9oZe4uClXPMc0u7/I+Dn34+NxHI5Ebvfd4uHDh/PdHBGxsHjxYhyORB49+mHG11BwzqJgWDpfSeKll/SlFVmIfvjhB8bGxp6ouNFP9yx7+PChqk2RnziNcYqI2KTgFBGxScEpImKTglNExCYFp4iITQpOERGbFJwiIjYpOEVEbFJwiojYpOAUEbFJwSkiYpOCU0TEJgWniIhNCk4REZsUnCIiNik4RURsUnCKiNik4BQRsUnBKSJik/7m0Cx7/PhHxh8/5scfZ/4X9ETk6XnxxZdY9MILvPDCizO+hoJzFj1+/COMP+bnqauIj0+Y7+aIiIXR0RH6bn3L48fMODzVVZ9V46SsVGiKLGTx8QmkrFwFjM/4GgrOWfTDo0cKTZFnQHx8Aj88ejTj8xWcIiI2KThFRGxScIqI2GR7Vt3jraIobXrHDjcfory2M2JrId7qAgYOV3CkfZKTC/fhK0qmJXBcRnEFJRwNXK8Qb/V2qNuPrxHILKZydy6JMdrwu+V7yL60H19jId7KFdSV19IxvZcgIhLFdnA2+PbTELHN460KBNNUZ7spqdxOenc9vslCE8joqedg8y727t5HX9kBukJ7jNBM766njkKgEdprKS87S0nlLqit4Ei7cZ++8gM0AB6v3VcpIhLbDNZxRlR7FjzeKoqoxxtxgMe7hzxaOWjaHl5JTuho74T2Cry1geNCexrxlU2Z0M+gVDZtW83I6Sbahuzsc5D94WYSbjRwtiewyZXHjjWjNJ26inOjh7UjZzh5xW99W1ceO1L6OHau13icnRSzhQNtpnuIPMdmEJyN+A6voHJ3FV6iw9PjraIoqZWD5ZGhGdwe3k3uqK3gd94qvIXBa7kpqdxDnsPq3nvw5Uds8rdydjCXTcHhg91V5AX3VVdR5G+lZdD+q5x7vVzpXk3BljyGj18j8cPNpMWFH5G8xYN5lMQIMj9tNwbZkV1A9rARrK6UJB7cvsYw4LTThJ4WjmEK0iDnOrZuieeWQlMEmOknh9prKT8Mlbv34Wk8ENqcUVxhGY5WoZlRXMHefFM6pgWDuJMj5fs5EtyeWUzl7iQ6mpPJyIREB6Fxzwm1/EcK8VZn0VZ2gAYiu+q5JE/jZcWqlOfK8JUmLiZ4WJsFJ0810BbaM1nFCfS00JRQQMEbqbRdc7A2GZYmb2ZHMGXNjxnk4vEWepzr2LrFxVIAktix7c1AELdwMcXD1qxho0oNHDfW1oByU+bTzr9fRHp67AmW8fFx/v1/OMqwP0bvahbN/COX7bWUlxkPPYFNHbUVRA4nZhRXBCaTctlbnRvaPtx8CG+ZuXvupqSygpKeicmgvfkO8LdysOwAFFeQN9jEwfYC9garSv9EGGcUF5De3YTPoqlW47ILVc85I6ASswooiCg5wyvOQAAGng1faeIY4NroYenA5VDF6IrVVR+6ysnjV8O76qY2sNHDjm0AY3SfbrAObJE55EhMZNGiRZMeExcXtwCDs3AfvqJ0631pVfiKIjd2UVc2MU45uU6OfDGAb/uvSN79Bun+Vg6WmSpUYPhOFx21jaHrebxV7K1Oou7wIO9ndkQND1i2u7s+5oz6fAZs9oceo2s+1kPTqatGEF4J7o1dcbo2eshJhlCQnnvCytBUiT4YGITkJNK25DFsCmmR+fD//XUD//Sf/GPL8BwfH6el9Sv6b9+ek7YsWv/2hpl/YDNgyln1SZYLhYSqx8Cs+bTv3kVd2QGLwDN33efGw+/HyMx6a+YXcK5j6zvQeiOegkkmaUJClWUqm7alcOv0KGtD3e/pnIfFhNAY3VEBncqmbW+SbLlPZO68vT6Hv7v1g6jtt/7Qx//9n35r61rtVy6xeEnc1AdamLvfjuSPHvsMySymsjj4xGLWPLOYyt0Z4DeGA6zWf0aNmQakV1cRVgh3z98Y5rT1tHBs2JiQuW5R6U3Z/cbo6ufyNSev+K2PN49xmoM0xEH2h2/DV020DfVy9njkfpG59/WFi6xc+XMy35hYZzM+Ps7JU1/MaTuegV8rV4h3dy6Ddfvx9RRTubuCEovF8x21kUMC9ivO+Z4cipZEzjYPORZ7HoxMfqYzIQ4sjknMKqAg4SbHzpnHOAM7rZYjmcdVLQNWZG6dPPUFq1JTiY9fyvj4OKe+aOL27Ttz2oa5C05H+ORQFH9rxIZgl91Py+H9gaCspbysEG91FT78FrPrPzXhE0BBro0e1k5yljHuOcjFc9GD5M6EOB6MDFuf2NPCsdDNzBXnDJou8pSMjX3Hif92kr9XtJ2Ozut89fWFOW/DAuyqhwdm9CeMgl35iQC91e9g5Qrr20Z11SFmd33BzL678tiUMMq0K05XCsnArcBi+LQHlzlm6lr39A2Skx1ckjRG9zWLWcew5UkmlmtHZ/ayRGbL9Rs3+X/+32P098/NZFCkWZkcEsMTTw4Fu8pjPTR9xf/f3t3FtJXmdxz/5kVUBGxWtiKYMC7MBoYQkp1ZICKR6CSVbJVAq96tVutBau8YRUhGuUeW7xGWUJpIvWnFcNGrrroLpIu1TWbYzqTgdGYTQgiZWRCbBJKxpeEldHmxe3FsOAY75BgHmOzvI42EzznPc46R8pv/82JD7WvMcRrblpaZns6nrGw5bYW64z23bngHVHHK2+6HsTgkO7IX5vNy+suNjecpUirCzaqxqBCmvwgz9j2MPT3FpQwVaorIAwZGSKyUQ2QsnPP3IvI2U8WZQ7uuOEVkz+ym4tT3cYqIWKTgFBGxSMEpImKRglNExCIFZw7l5eWxtLTDR3pEZN8tLS2Sl5eXdXsFZw7l5x9j9tkThafIAba0tMjssyfk5+/4dTgZaR9nDq3H4thsdp7PPmVlZWW/H0dE0sjLy8Nms7O6upZ1HwrOHEqGZdGPHBw9ql+tyEG0trbG8vLyroob/evOsZWVFVWbIm85zXGKiFik4BQRsUjBKSJikYJTRMQiBaeIiEUKThERixScIiIWKThFRCxScIqIWKTgFBGxSMEpImKRglNExCIFp4iIRQpOERGLFJwiIhYpOEVELFJwiohYpOAUEbFIwSkiYpGCU0TEIv2xthyLxdaJx2Ksr2f/p0dF5M05cuQohw4f5vDhI1n3oeDMoVhsHeIx3il9l4KCwv1+HBFJY2lpkdmnfyQWI+vw1FA9p+KUnFBoihxkBQWFlJx4F4hn3YeCM4fWVlcVmiI/AAUFhaytrmbdXsEpImKRglNExCIFp4iIRdaD091OsLsdT5pTlV4/Pvdr9FHlJRDwUvmq891+WqvS3z/grbDQbwWtgQx9iYhkwXpwhnq4NuqkJRFQlV5/2iDz+HYRVhN9dPZHqGtLBLS7nWCaRN4a1JX1lTBxh8ksb7u/SmloaqSmyOo5GzUXPTS4TIdcdTRfPIUdcJ3zcKnalvm2rjqaz5Vu/tzkyfhfyj1E/oxZ28fpbifYUp54UcuVbgfhUbDXf0KwPnlRF8EWgAXCgFHxfUJdmn+7V7prU17Pj16nc7SBQFst9sSxlm4/JaMRKLtMsPty4ujm/ab6Nx6OlnobdtM5Fu5yrfOOpbe4f54wPv0ejRfqmL/5CPvF85Tlp17hvOChzPQ6MjbEnZkFxr6N0lzTSM38MGPfg6vEwcvnj5gH0mZtJjNhBqijuWSWgZEnm8eLTnHpQgFPZ7J/dyJvE2vBGerBF9p+uLdvp4YLhG/46Z1IvKzyEvBCb2ffRnVY6fXTCka12bG9wx3v4a6mfHoQXzDxgO52gh/t9FwHy/z4MPcKPZyshlu3hxjbOFNKQ9N7LH5hBOM2M2GGCxtpfL+UsUc2TjrhmPM8zcmUNf9MlHs3w8wUneLSBRfHAHDQ3HQ6EcRh7pV4uFQ9z63xhURoulgeG0K5Kfupvu6nnDhxIuP5I4cP88v/+DXxePb7M1+XteA0B567nUBxlGh9LeUZGywQvvHp9sMuB/boeIYhtRtfdzVjHT0MVXkJXIZJR23aijVpqv86kY+chPs2U72y2AmJe5zHRl1bF87+qwTTBH+Sx9dFC6bw3QczI0ZA2asbadxScqZWnIkATLyaHx9mAGNofizyYKNidJ3zcHLxSyMEzb5/yK2bD43h+ZYKc2ZkCM55aG4CWGb6i6H0gS2yhz784CcUFBS88pqSkmKePZt9489iLTgn5ojaqo2gLHYSneshuFEdVtAa+Bj6TJVl8viWbjxnyqHMSWtVaMu1AFNEFhopqQJcDngxSG+wj95kW18XNfdTA7DS6+dKdJhr9X58Lj/BEJQftzF1PwRUsBHg3i6CH93lmqnSPShqLnqMofnyDMO3HxpBOJ48m7nidJ3zcNYJG0E6ssvK0FSJvoxEwemg7EId86aQFtkPtz//HS2X/ybj+fGHE3sSmmD5s+pTRBaqASOYmEszf9nWRV3ix/nR63RuHWK722lx3OXaDWht68K3rQp8zGwUSkhUjSQqQfPkXllyHhWY/h/Cjgj9nSEjDLu78DEIZVOMBVP77e28ypdeP1d87rRV5VDwKkOWfh+5M3Z7iLGiU1z6EKMKrHFsu2brHCeRBwyMDDFDKQ1NJSmhl9rQPFRPtjPNYTpP09x0OvEiXYVZSkOTh7MsM51pukDkDZucfEy4uJi62g+3nfsuEuE/f7N3I0WLwfmY2aiTkiqYZYHIDCTnL2cv+ykZ9PNlvZ+WOT9B2gkUp7au9Pq5Uh+hv8Oo+Do75vB1d+HjKv2m66ZeQE1iBTc69xiOw1T/VfqLzX0PGgtJlyP0dv5bomWIYAf4ui/jGL2eNgQn+/z4rL3pvTcTZmDeWJD5Jk2lt+PwG2OoX8vX3BpfSH+9OWS3BilgrNZ/AF8NM/b9E+7c3HpeZO99Pvw7jh938peuzS0ea+vr3Ly5tyWP5W9HMkKtAhwRZieMynBnxhxj3cJdrnWYh8nJoGvn/Ojm1ZNzERzFFZQfh8gocMbCA1YV42CKz/seW2h0UDk42+ThbJozLxdf3bKoMB/SXGOvbqSx8A8MjJjnOBMn01W65io3bcCK7K1//+Wv+Md/aMVusxGPxwmFfst3kciePoPl4DRCrQGI8iWvG5xbVtVThAh2hKj0+jc3rs9E4UwDJYlw5nK6dum48bVVMnnDn9WQ+yAsDqVKXQBKcp3zcPIVrYx5zyj3Rha2nSsqzOfl4nz6hjNhBjZuZq44s3h0kTckHo/zq18P8Iuf/4zw3f/l4cSjPX8G69/HGeqhs8pLoL6WKwEHU0DOs36ij84JN77uWuq625mafo027naCLc5XBPQPiKuOhsIlXrvidJXgBJ5io+biecpePmDANLSemY1ytiY5z7nM9KPtgZpxfjTt3tHs3pZIrrx48R3/dOOfWd3FNxztRvYb4KcH8QWnjJV0YCjoN45P+BnzdREsg/nRDP0kVXlNm90XCN94nHpswVgBL/d1UYMxP2ms9/TQ6/UTbLPB9GDiuaC/I7tKM2k/F4cAsBdwLN9B449nGP4Kast2rjiNbUvLTE/nc7bpfe7dHGJga78plWQGpvlRgypOOdj2KzQBDv3kg5+++d2ifyZW/rRMVbWVCdlU5gWd5Kd1NhaHUirCzdVt17lG7I8S4Zapatwq8oCBEWhoOo2TTFWkglPebhPj98n7i/ydL0xDwZlDuw1OEdk7uwlOfa2ciIhFCk4REYsUnCIiFik4RUQsUnDmUF5eHktLO3ykR0T23dLSInl5eVm3V3DmUH7+MWafPVF4ihxgS0uLzD57Qn7+jhv3MrL+ySHJaD0Wx2az83z2KSsrK/v9OCKSRl5eHjabndXVtaz7UHDmUDIsi37k4OhR/WpFDqK1tTWWl5d3VdzoX3eOraysqNoUectpjlNExCIFp4iIRQpOERGLFJwiIhYpOEVELFJwiohYpOAUEbFIwSkiYpGCU0TEIgWniIhFCk4REYsUnCIiFik4RUQsUnCKiFik4BQRsUjBKSJikYJTRMQiBaeIiEUKThERixScIiIW6Y+15Vgstk48FmN9Pfs/PSoib86RI0c5dPgwhw8fyboPBWcOxWLrEI/xTum7FBQU7vfjiEgaS0uLzD79I7EYWYenhuo5FafkhEJT5CArKCik5MS7QDzrPhScObS2uqrQFPkBKCgoZG11Nev2Ck4REYsUnCIiFik4RUQsshicbnzdflqrjFeVXj9Bn3vzdJWXQMBL5Wv31Y4HN77uLszdpFPp9RPwVrz6orT3r6A1sPnMIiK7ZXE7UohgB0Z43vDT2/cp4cAn+NwhgiHA5cAeHWfS1MLj66KlzNzHFP0dPQwxRWShkZKqEMGOEB5fF4Hi63T2Pc76zVTWV8LEpyn3/+EopaHpPRa/GGbseyvnbNRcPE/ht0PcmUkcctXR/OMlhm8/pOich5OLX3JrfCH9bV11NJfMMjDyxPi5xpHxCSNjpnuI/BnLYh9niGDHFK2BLoK2xKGWLoJn7hJ2lIOtnGD35cSJKfo7ruLbaOvG112dtteh4FWGki+qvATaarFvu+oTgvXm1wuEb/jpnTD6bqm3YTdfs3CXa513rL/FffGE8en3aLxQx/zNR9gvnqcsP/UK5wUP5v8HGUG2wNi3UZprGqmZN4LVVeLg5fNHzANFVh5hJswApiBNKjrFpQsFPFVoigAWg7PS6+dK1STXOvvo7bwOgY+hLxFc7naCH93lWkfftooz8CJRSVYV41iIUuLrIphMgLYu6kzXT/VfJThDIvQ2+6r0+mnlU1NFWkFr4OPNhu5qyqcH8QVDidftBD+y8u723/z4MPcKPZyshlu3hxjbOPOqihOYCTNc2Ejj+6WMPbJx0gnHnOdpTv6OzT8T5d7NMDNFp7h0wcUxABw0N51OBHGYeyUeLlXPG1Vq4rrlsSGUmyIGS8E52efH524nGPBuq+Q8Z5xMRZ1c6e7aPDg9iC84SE33ZTx9PQwlhvK9wav0Ah6fn5LBZMVokmY+svy4jej9TMP4Clo/chLuC20cqSx2QmLa4Dw26tq6cPZfJRjK0AWJaQVM4bsPZkaMgLJXN9K4peRMrTgTAZh4NT8+zADgOufhWOTBRsXoyjRU//4ht24+TB2qm56Bcx6amwCWmf5iKH1gi+yhv/+7FsrLyzKej8fj/Mu/fsr8QoZpqRyyPlQP9eALAVRsBFIdMD9qmp+s8hJoq2Ry0Aig/tFGrvjcQDlT93tMndlwuoCNijWaUmVuclNTBuUOL5Wh7ecrvR9TFx3mWr0fn8tPMGQE7dT9EFCBMaT/FLxdRlWc9h77q+aixxiaL88wfPuhEYTjybOZK07XOQ9nnbARpCO7rAxNlejLSBScDsou1DFvCmmR/WC32zl06NArr8nPzz+gwVnlJdDm4POOQZILPVNePy1zyWrQja/Nwecd/o05y8nEIlKLbYr+4GZXUy8W+KviCqAcX4uT8I2etIHm8V3GMXqda3zMle72xOJSUgXnqyL0d4aMtt1d+BiEsinGguZeHtPbeZUvvX6u+Nxpq8qUedY9NnZ7iLGiU1z6kIyLNFvnOIk8YGBkiBlKaWgqSQm91IbmoXqynWkO03ma5qbTiRfpKsxSGpo8nGWZ6UzTBSJv2M3fDPGLn/8sbXjG43HCd79i7vnzPXkW68HpcmCfHmeIcnw2mE0eP9NOsKV847Ly7i5aNhZvHtP72RR1H0WZMnU1ORfBfqaB1kAtjtHrBLcO2amgNfAJddFBfH2PAT++uXaC3e3QMZi45jG9nckqNrnqbwRtuhCc7PObFqsOqJkwA/PGgsw3aSq9HYffGEP9Wr7m1vhC+uvNIbs1SAFjtf4D+GqYse+fcOfm1vMie+vFi++4dftz/vrS9sWLZ7NzDP/uv/fsWSwHZ2Wxk/kXU1DVgGPBFIT3e/AFIblyPpZSFbrxtTiZXyin1Xtnc0g/E2W+pZa66UQwutsJnhnHNwjYarnSXcv86PVEaCaEevDRTtDXQDjdA1YV42CKz3exrengcHC2ycPZNGdeLr66ZVFhPqS5xl7dSGPhHxgYMc9xJk6mq3TNVW7agBXZO1///h4nTrxD1fubu7Xj8Ti3bn+2p89hOTg3Fmlclzf2bHqO22Auc5tKbyPl08P4BosJtCUWigDPZWPLkTEXaQpliretqqcI9eALVdAa2LrV3o2vrZLJG/6shtwHYXEoVeoCUJLrnIeTr2hlzHtGuTeyfa6nqDCfl4vz6RvOhBnYuJm54szi0UXekFu3P+Pd0lIKCo4Rj8e5/dkwz5+/2NNnsBicbmrKFogMVtDqNa9iLxDJtHLgbudKfYT+DuPa3lE/rV4vNfW1xvahG8UE2trxhHpgY+W8wfo7cbcTbHGa9nX+gLnqaChc4rUrTlcJTuBpYjN82csHDJiG1jOzUc7WJOc5l5l+lGbyPNP8aNq9o9m9LZFcWF7+P377X7f425bLTD7+hq++/v2eP4O14KwqxkGEMddlWqLD+FztBNvKgSn6JxLzkTZg4S79wMY2oRupC0WTgU9w9l9NrM5DZ387we4uo58gabcjJVV6/VypT+y8X7jLteSKfAv0d2RXaSbt5+IQAPYCjuU7aPzxDMNfQW3ZzhWnsW1pmenpfM42vc+9m0MMbO03pZLMwDQ/alDFKQfXN9/+gV/9eoC5ub1ZDNrq0E8++Gn23+YpKVb+tExV9Zms25sXdJKf1tlYHEqpCDdXt13nGrE/SoRbpqpxq8gDBkagoek0TjJVkQpOebtNjN8n7y/yd74wDQVnDu02OEVk7+wmOPW1ciIiFik4RUQsUnCKiFik4BQRsUjBKSJikYIzh/Ly8lha2uGzkCKy75aWFsnLy8u6vYIzh/LzjzH77InCU+QAW1paZPbZE/Lzd9zxnFEWfzpDMlmPxbHZ7DyffcrKysp+P46IpJGXl4fNZmd1dS3rPhScOZQMy6IfOTh6VL9akYNobW2N5eXlXRU3+tedYysrK6o2Rd5ymuMUEbFIwSkiYpGCU0TEIgWniIhFCk4REYsUnCIiFik4RUQsUnCKiFik4BQRsUjBKSJikYJTRMQiBaeIiEUKThERixScIiIWKThFRCxScIqIWKTgFBGxSMEpImKRglNExCL9zaEci8XWicdirK9n/xf0ROTNOXLkKIcOH+bw4SNZ96HgzKFYbB3iMd4pfZeCgsL9fhwRSWNpaZHZp38kFiPr8NRQPafilJxQaIocZAUFhZSceBeIZ92HgjOH1lZXFZoiPwAFBYWsra5m3V7BKSJikYJTRMQiBaeIiEUHJjg9vi4C3orXvjbY3Y7nDT+TiEg6/w9IpVVEeND2PQAAAABJRU5ErkJggg==;" vertex="1" parent="1">
          <mxGeometry x="130" y="276.36" width="301.64" height="522" as="geometry" />
        </mxCell>
        <mxCell id="EEVbNRZ3YIjHYYHEZtKa-54" value="" style="endArrow=classic;html=1;rounded=0;" edge="1" parent="1">
          <mxGeometry width="50" height="50" relative="1" as="geometry">
            <mxPoint x="440" y="90" as="sourcePoint" />
            <mxPoint x="520" y="250" as="targetPoint" />
          </mxGeometry>
        </mxCell>
        <mxCell id="EEVbNRZ3YIjHYYHEZtKa-55" value="" style="endArrow=classic;html=1;rounded=0;" edge="1" parent="1">
          <mxGeometry width="50" height="50" relative="1" as="geometry">
            <mxPoint x="440" y="470" as="sourcePoint" />
            <mxPoint x="520" y="380" as="targetPoint" />
          </mxGeometry>
        </mxCell>
        <mxCell id="EEVbNRZ3YIjHYYHEZtKa-56" value="改成规则逻辑形式" style="text;html=1;align=center;verticalAlign=middle;resizable=0;points=[];autosize=1;strokeColor=none;fillColor=none;rotation=-50;" vertex="1" parent="1">
          <mxGeometry x="430" y="428" width="120" height="30" as="geometry" />
        </mxCell>
        <mxCell id="EEVbNRZ3YIjHYYHEZtKa-57" value="改成流程列表" style="text;html=1;align=center;verticalAlign=middle;resizable=0;points=[];autosize=1;strokeColor=none;fillColor=none;rotation=60;" vertex="1" parent="1">
          <mxGeometry x="440" y="120" width="100" height="30" as="geometry" />
        </mxCell>
        <mxCell id="EEVbNRZ3YIjHYYHEZtKa-58" value="多状态容器改造" style="text;html=1;strokeColor=none;fillColor=none;align=center;verticalAlign=middle;whiteSpace=wrap;rounded=0;fontSize=20;fontStyle=1" vertex="1" parent="1">
          <mxGeometry x="-150" y="20" width="190" height="30" as="geometry" />
        </mxCell>
      </root>
    </mxGraphModel>
  </diagram>
</mxfile>
